# https://github.com/mikedh/trimesh
v 0.00000000 0.00000000 -0.60000000
v 0.50000000 0.00000000 -0.60000000
v 0.50000000 0.00000000 0.60000000
v 0.00000000 0.00000000 0.60000000
v 0.49984941 0.01227061 -0.60000000
v 0.49984941 0.01227061 0.60000000
v 0.49939773 0.02453384 -0.60000000
v 0.49939773 0.02453384 0.60000000
v 0.49864523 0.03678228 -0.60000000
v 0.49864523 0.03678228 0.60000000
v 0.49759236 0.04900857 -0.60000000
v 0.49759236 0.04900857 0.60000000
v 0.49623977 0.06120534 -0.60000000
v 0.49623977 0.06120534 0.60000000
v 0.49458825 0.07336524 -0.60000000
v 0.49458825 0.07336524 0.60000000
v 0.49263882 0.08548094 -0.60000000
v 0.49263882 0.08548094 0.60000000
v 0.49039264 0.09754516 -0.60000000
v 0.49039264 0.09754516 0.60000000
v 0.48785107 0.10955062 -0.60000000
v 0.48785107 0.10955062 0.60000000
v 0.48501563 0.12149009 -0.60000000
v 0.48501563 0.12149009 0.60000000
v 0.48188803 0.13335638 -0.60000000
v 0.48188803 0.13335638 0.60000000
v 0.47847017 0.14514234 -0.60000000
v 0.47847017 0.14514234 0.60000000
v 0.47476409 0.15684087 -0.60000000
v 0.47476409 0.15684087 0.60000000
v 0.47077203 0.16844493 -0.60000000
v 0.47077203 0.16844493 0.60000000
v 0.46649640 0.17994752 -0.60000000
v 0.46649640 0.17994752 0.60000000
v 0.46193977 0.19134172 -0.60000000
v 0.46193977 0.19134172 0.60000000
v 0.45710488 0.20262066 -0.60000000
v 0.45710488 0.20262066 0.60000000
v 0.45199465 0.21377755 -0.60000000
v 0.45199465 0.21377755 0.60000000
v 0.44661215 0.22480566 -0.60000000
v 0.44661215 0.22480566 0.60000000
v 0.44096063 0.23569837 -0.60000000
v 0.44096063 0.23569837 0.60000000
v 0.43504350 0.24644910 -0.60000000
v 0.43504350 0.24644910 0.60000000
v 0.42886431 0.25705137 -0.60000000
v 0.42886431 0.25705137 0.60000000
v 0.42242678 0.26749881 -0.60000000
v 0.42242678 0.26749881 0.60000000
v 0.41573481 0.27778512 -0.60000000
v 0.41573481 0.27778512 0.60000000
v 0.40879241 0.28790410 -0.60000000
v 0.40879241 0.28790410 0.60000000
v 0.40160377 0.29784965 -0.60000000
v 0.40160377 0.29784965 0.60000000
v 0.39417321 0.30761580 -0.60000000
v 0.39417321 0.30761580 0.60000000
v 0.38650523 0.31719664 -0.60000000
v 0.38650523 0.31719664 0.60000000
v 0.37860442 0.32658642 -0.60000000
v 0.37860442 0.32658642 0.60000000
v 0.37047556 0.33577948 -0.60000000
v 0.37047556 0.33577948 0.60000000
v 0.36212354 0.34477027 -0.60000000
v 0.36212354 0.34477027 0.60000000
v 0.35355339 0.35355339 -0.60000000
v 0.35355339 0.35355339 0.60000000
v 0.34477027 0.36212354 -0.60000000
v 0.34477027 0.36212354 0.60000000
v 0.33577948 0.37047556 -0.60000000
v 0.33577948 0.37047556 0.60000000
v 0.32658642 0.37860442 -0.60000000
v 0.32658642 0.37860442 0.60000000
v 0.31719664 0.38650523 -0.60000000
v 0.31719664 0.38650523 0.60000000
v 0.30761580 0.39417321 -0.60000000
v 0.30761580 0.39417321 0.60000000
v 0.29784965 0.40160377 -0.60000000
v 0.29784965 0.40160377 0.60000000
v 0.28790410 0.40879241 -0.60000000
v 0.28790410 0.40879241 0.60000000
v 0.27778512 0.41573481 -0.60000000
v 0.27778512 0.41573481 0.60000000
v 0.26749881 0.42242678 -0.60000000
v 0.26749881 0.42242678 0.60000000
v 0.25705137 0.42886431 -0.60000000
v 0.25705137 0.42886431 0.60000000
v 0.24644910 0.43504350 -0.60000000
v 0.24644910 0.43504350 0.60000000
v 0.23569837 0.44096063 -0.60000000
v 0.23569837 0.44096063 0.60000000
v 0.22480566 0.44661215 -0.60000000
v 0.22480566 0.44661215 0.60000000
v 0.21377755 0.45199465 -0.60000000
v 0.21377755 0.45199465 0.60000000
v 0.20262066 0.45710488 -0.60000000
v 0.20262066 0.45710488 0.60000000
v 0.19134172 0.46193977 -0.60000000
v 0.19134172 0.46193977 0.60000000
v 0.17994752 0.46649640 -0.60000000
v 0.17994752 0.46649640 0.60000000
v 0.16844493 0.47077203 -0.60000000
v 0.16844493 0.47077203 0.60000000
v 0.15684087 0.47476409 -0.60000000
v 0.15684087 0.47476409 0.60000000
v 0.14514234 0.47847017 -0.60000000
v 0.14514234 0.47847017 0.60000000
v 0.13335638 0.48188803 -0.60000000
v 0.13335638 0.48188803 0.60000000
v 0.12149009 0.48501563 -0.60000000
v 0.12149009 0.48501563 0.60000000
v 0.10955062 0.48785107 -0.60000000
v 0.10955062 0.48785107 0.60000000
v 0.09754516 0.49039264 -0.60000000
v 0.09754516 0.49039264 0.60000000
v 0.08548094 0.49263882 -0.60000000
v 0.08548094 0.49263882 0.60000000
v 0.07336524 0.49458825 -0.60000000
v 0.07336524 0.49458825 0.60000000
v 0.06120534 0.49623977 -0.60000000
v 0.06120534 0.49623977 0.60000000
v 0.04900857 0.49759236 -0.60000000
v 0.04900857 0.49759236 0.60000000
v 0.03678228 0.49864523 -0.60000000
v 0.03678228 0.49864523 0.60000000
v 0.02453384 0.49939773 -0.60000000
v 0.02453384 0.49939773 0.60000000
v 0.01227061 0.49984941 -0.60000000
v 0.01227061 0.49984941 0.60000000
v 0.00000000 0.50000000 -0.60000000
v 0.00000000 0.50000000 0.60000000
v -0.01227061 0.49984941 -0.60000000
v -0.01227061 0.49984941 0.60000000
v -0.02453384 0.49939773 -0.60000000
v -0.02453384 0.49939773 0.60000000
v -0.03678228 0.49864523 -0.60000000
v -0.03678228 0.49864523 0.60000000
v -0.04900857 0.49759236 -0.60000000
v -0.04900857 0.49759236 0.60000000
v -0.06120534 0.49623977 -0.60000000
v -0.06120534 0.49623977 0.60000000
v -0.07336524 0.49458825 -0.60000000
v -0.07336524 0.49458825 0.60000000
v -0.08548094 0.49263882 -0.60000000
v -0.08548094 0.49263882 0.60000000
v -0.09754516 0.49039264 -0.60000000
v -0.09754516 0.49039264 0.60000000
v -0.10955062 0.48785107 -0.60000000
v -0.10955062 0.48785107 0.60000000
v -0.12149009 0.48501563 -0.60000000
v -0.12149009 0.48501563 0.60000000
v -0.13335638 0.48188803 -0.60000000
v -0.13335638 0.48188803 0.60000000
v -0.14514234 0.47847017 -0.60000000
v -0.14514234 0.47847017 0.60000000
v -0.15684087 0.47476409 -0.60000000
v -0.15684087 0.47476409 0.60000000
v -0.16844493 0.47077203 -0.60000000
v -0.16844493 0.47077203 0.60000000
v -0.17994752 0.46649640 -0.60000000
v -0.17994752 0.46649640 0.60000000
v -0.19134172 0.46193977 -0.60000000
v -0.19134172 0.46193977 0.60000000
v -0.20262066 0.45710488 -0.60000000
v -0.20262066 0.45710488 0.60000000
v -0.21377755 0.45199465 -0.60000000
v -0.21377755 0.45199465 0.60000000
v -0.22480566 0.44661215 -0.60000000
v -0.22480566 0.44661215 0.60000000
v -0.23569837 0.44096063 -0.60000000
v -0.23569837 0.44096063 0.60000000
v -0.24644910 0.43504350 -0.60000000
v -0.24644910 0.43504350 0.60000000
v -0.25705137 0.42886431 -0.60000000
v -0.25705137 0.42886431 0.60000000
v -0.26749881 0.42242678 -0.60000000
v -0.26749881 0.42242678 0.60000000
v -0.27778512 0.41573481 -0.60000000
v -0.27778512 0.41573481 0.60000000
v -0.28790410 0.40879241 -0.60000000
v -0.28790410 0.40879241 0.60000000
v -0.29784965 0.40160377 -0.60000000
v -0.29784965 0.40160377 0.60000000
v -0.30761580 0.39417321 -0.60000000
v -0.30761580 0.39417321 0.60000000
v -0.31719664 0.38650523 -0.60000000
v -0.31719664 0.38650523 0.60000000
v -0.32658642 0.37860442 -0.60000000
v -0.32658642 0.37860442 0.60000000
v -0.33577948 0.37047556 -0.60000000
v -0.33577948 0.37047556 0.60000000
v -0.34477027 0.36212354 -0.60000000
v -0.34477027 0.36212354 0.60000000
v -0.35355339 0.35355339 -0.60000000
v -0.35355339 0.35355339 0.60000000
v -0.36212354 0.34477027 -0.60000000
v -0.36212354 0.34477027 0.60000000
v -0.37047556 0.33577948 -0.60000000
v -0.37047556 0.33577948 0.60000000
v -0.37860442 0.32658642 -0.60000000
v -0.37860442 0.32658642 0.60000000
v -0.38650523 0.31719664 -0.60000000
v -0.38650523 0.31719664 0.60000000
v -0.39417321 0.30761580 -0.60000000
v -0.39417321 0.30761580 0.60000000
v -0.40160377 0.29784965 -0.60000000
v -0.40160377 0.29784965 0.60000000
v -0.40879241 0.28790410 -0.60000000
v -0.40879241 0.28790410 0.60000000
v -0.41573481 0.27778512 -0.60000000
v -0.41573481 0.27778512 0.60000000
v -0.42242678 0.26749881 -0.60000000
v -0.42242678 0.26749881 0.60000000
v -0.42886431 0.25705137 -0.60000000
v -0.42886431 0.25705137 0.60000000
v -0.43504350 0.24644910 -0.60000000
v -0.43504350 0.24644910 0.60000000
v -0.44096063 0.23569837 -0.60000000
v -0.44096063 0.23569837 0.60000000
v -0.44661215 0.22480566 -0.60000000
v -0.44661215 0.22480566 0.60000000
v -0.45199465 0.21377755 -0.60000000
v -0.45199465 0.21377755 0.60000000
v -0.45710488 0.20262066 -0.60000000
v -0.45710488 0.20262066 0.60000000
v -0.46193977 0.19134172 -0.60000000
v -0.46193977 0.19134172 0.60000000
v -0.46649640 0.17994752 -0.60000000
v -0.46649640 0.17994752 0.60000000
v -0.47077203 0.16844493 -0.60000000
v -0.47077203 0.16844493 0.60000000
v -0.47476409 0.15684087 -0.60000000
v -0.47476409 0.15684087 0.60000000
v -0.47847017 0.14514234 -0.60000000
v -0.47847017 0.14514234 0.60000000
v -0.48188803 0.13335638 -0.60000000
v -0.48188803 0.13335638 0.60000000
v -0.48501563 0.12149009 -0.60000000
v -0.48501563 0.12149009 0.60000000
v -0.48785107 0.10955062 -0.60000000
v -0.48785107 0.10955062 0.60000000
v -0.49039264 0.09754516 -0.60000000
v -0.49039264 0.09754516 0.60000000
v -0.49263882 0.08548094 -0.60000000
v -0.49263882 0.08548094 0.60000000
v -0.49458825 0.07336524 -0.60000000
v -0.49458825 0.07336524 0.60000000
v -0.49623977 0.06120534 -0.60000000
v -0.49623977 0.06120534 0.60000000
v -0.49759236 0.04900857 -0.60000000
v -0.49759236 0.04900857 0.60000000
v -0.49864523 0.03678228 -0.60000000
v -0.49864523 0.03678228 0.60000000
v -0.49939773 0.02453384 -0.60000000
v -0.49939773 0.02453384 0.60000000
v -0.49984941 0.01227061 -0.60000000
v -0.49984941 0.01227061 0.60000000
v -0.50000000 0.00000000 -0.60000000
v -0.50000000 0.00000000 0.60000000
v -0.49984941 -0.01227061 -0.60000000
v -0.49984941 -0.01227061 0.60000000
v -0.49939773 -0.02453384 -0.60000000
v -0.49939773 -0.02453384 0.60000000
v -0.49864523 -0.03678228 -0.60000000
v -0.49864523 -0.03678228 0.60000000
v -0.49759236 -0.04900857 -0.60000000
v -0.49759236 -0.04900857 0.60000000
v -0.49623977 -0.06120534 -0.60000000
v -0.49623977 -0.06120534 0.60000000
v -0.49458825 -0.07336524 -0.60000000
v -0.49458825 -0.07336524 0.60000000
v -0.49263882 -0.08548094 -0.60000000
v -0.49263882 -0.08548094 0.60000000
v -0.49039264 -0.09754516 -0.60000000
v -0.49039264 -0.09754516 0.60000000
v -0.48785107 -0.10955062 -0.60000000
v -0.48785107 -0.10955062 0.60000000
v -0.48501563 -0.12149009 -0.60000000
v -0.48501563 -0.12149009 0.60000000
v -0.48188803 -0.13335638 -0.60000000
v -0.48188803 -0.13335638 0.60000000
v -0.47847017 -0.14514234 -0.60000000
v -0.47847017 -0.14514234 0.60000000
v -0.47476409 -0.15684087 -0.60000000
v -0.47476409 -0.15684087 0.60000000
v -0.47077203 -0.16844493 -0.60000000
v -0.47077203 -0.16844493 0.60000000
v -0.46649640 -0.17994752 -0.60000000
v -0.46649640 -0.17994752 0.60000000
v -0.46193977 -0.19134172 -0.60000000
v -0.46193977 -0.19134172 0.60000000
v -0.45710488 -0.20262066 -0.60000000
v -0.45710488 -0.20262066 0.60000000
v -0.45199465 -0.21377755 -0.60000000
v -0.45199465 -0.21377755 0.60000000
v -0.44661215 -0.22480566 -0.60000000
v -0.44661215 -0.22480566 0.60000000
v -0.44096063 -0.23569837 -0.60000000
v -0.44096063 -0.23569837 0.60000000
v -0.43504350 -0.24644910 -0.60000000
v -0.43504350 -0.24644910 0.60000000
v -0.42886431 -0.25705137 -0.60000000
v -0.42886431 -0.25705137 0.60000000
v -0.42242678 -0.26749881 -0.60000000
v -0.42242678 -0.26749881 0.60000000
v -0.41573481 -0.27778512 -0.60000000
v -0.41573481 -0.27778512 0.60000000
v -0.40879241 -0.28790410 -0.60000000
v -0.40879241 -0.28790410 0.60000000
v -0.40160377 -0.29784965 -0.60000000
v -0.40160377 -0.29784965 0.60000000
v -0.39417321 -0.30761580 -0.60000000
v -0.39417321 -0.30761580 0.60000000
v -0.38650523 -0.31719664 -0.60000000
v -0.38650523 -0.31719664 0.60000000
v -0.37860442 -0.32658642 -0.60000000
v -0.37860442 -0.32658642 0.60000000
v -0.37047556 -0.33577948 -0.60000000
v -0.37047556 -0.33577948 0.60000000
v -0.36212354 -0.34477027 -0.60000000
v -0.36212354 -0.34477027 0.60000000
v -0.35355339 -0.35355339 -0.60000000
v -0.35355339 -0.35355339 0.60000000
v -0.34477027 -0.36212354 -0.60000000
v -0.34477027 -0.36212354 0.60000000
v -0.33577948 -0.37047556 -0.60000000
v -0.33577948 -0.37047556 0.60000000
v -0.32658642 -0.37860442 -0.60000000
v -0.32658642 -0.37860442 0.60000000
v -0.31719664 -0.38650523 -0.60000000
v -0.31719664 -0.38650523 0.60000000
v -0.30761580 -0.39417321 -0.60000000
v -0.30761580 -0.39417321 0.60000000
v -0.29784965 -0.40160377 -0.60000000
v -0.29784965 -0.40160377 0.60000000
v -0.28790410 -0.40879241 -0.60000000
v -0.28790410 -0.40879241 0.60000000
v -0.27778512 -0.41573481 -0.60000000
v -0.27778512 -0.41573481 0.60000000
v -0.26749881 -0.42242678 -0.60000000
v -0.26749881 -0.42242678 0.60000000
v -0.25705137 -0.42886431 -0.60000000
v -0.25705137 -0.42886431 0.60000000
v -0.24644910 -0.43504350 -0.60000000
v -0.24644910 -0.43504350 0.60000000
v -0.23569837 -0.44096063 -0.60000000
v -0.23569837 -0.44096063 0.60000000
v -0.22480566 -0.44661215 -0.60000000
v -0.22480566 -0.44661215 0.60000000
v -0.21377755 -0.45199465 -0.60000000
v -0.21377755 -0.45199465 0.60000000
v -0.20262066 -0.45710488 -0.60000000
v -0.20262066 -0.45710488 0.60000000
v -0.19134172 -0.46193977 -0.60000000
v -0.19134172 -0.46193977 0.60000000
v -0.17994752 -0.46649640 -0.60000000
v -0.17994752 -0.46649640 0.60000000
v -0.16844493 -0.47077203 -0.60000000
v -0.16844493 -0.47077203 0.60000000
v -0.15684087 -0.47476409 -0.60000000
v -0.15684087 -0.47476409 0.60000000
v -0.14514234 -0.47847017 -0.60000000
v -0.14514234 -0.47847017 0.60000000
v -0.13335638 -0.48188803 -0.60000000
v -0.13335638 -0.48188803 0.60000000
v -0.12149009 -0.48501563 -0.60000000
v -0.12149009 -0.48501563 0.60000000
v -0.10955062 -0.48785107 -0.60000000
v -0.10955062 -0.48785107 0.60000000
v -0.09754516 -0.49039264 -0.60000000
v -0.09754516 -0.49039264 0.60000000
v -0.08548094 -0.49263882 -0.60000000
v -0.08548094 -0.49263882 0.60000000
v -0.07336524 -0.49458825 -0.60000000
v -0.07336524 -0.49458825 0.60000000
v -0.06120534 -0.49623977 -0.60000000
v -0.06120534 -0.49623977 0.60000000
v -0.04900857 -0.49759236 -0.60000000
v -0.04900857 -0.49759236 0.60000000
v -0.03678228 -0.49864523 -0.60000000
v -0.03678228 -0.49864523 0.60000000
v -0.02453384 -0.49939773 -0.60000000
v -0.02453384 -0.49939773 0.60000000
v -0.01227061 -0.49984941 -0.60000000
v -0.01227061 -0.49984941 0.60000000
v -0.00000000 -0.50000000 -0.60000000
v -0.00000000 -0.50000000 0.60000000
v 0.01227061 -0.49984941 -0.60000000
v 0.01227061 -0.49984941 0.60000000
v 0.02453384 -0.49939773 -0.60000000
v 0.02453384 -0.49939773 0.60000000
v 0.03678228 -0.49864523 -0.60000000
v 0.03678228 -0.49864523 0.60000000
v 0.04900857 -0.49759236 -0.60000000
v 0.04900857 -0.49759236 0.60000000
v 0.06120534 -0.49623977 -0.60000000
v 0.06120534 -0.49623977 0.60000000
v 0.07336524 -0.49458825 -0.60000000
v 0.07336524 -0.49458825 0.60000000
v 0.08548094 -0.49263882 -0.60000000
v 0.08548094 -0.49263882 0.60000000
v 0.09754516 -0.49039264 -0.60000000
v 0.09754516 -0.49039264 0.60000000
v 0.10955062 -0.48785107 -0.60000000
v 0.10955062 -0.48785107 0.60000000
v 0.12149009 -0.48501563 -0.60000000
v 0.12149009 -0.48501563 0.60000000
v 0.13335638 -0.48188803 -0.60000000
v 0.13335638 -0.48188803 0.60000000
v 0.14514234 -0.47847017 -0.60000000
v 0.14514234 -0.47847017 0.60000000
v 0.15684087 -0.47476409 -0.60000000
v 0.15684087 -0.47476409 0.60000000
v 0.16844493 -0.47077203 -0.60000000
v 0.16844493 -0.47077203 0.60000000
v 0.17994752 -0.46649640 -0.60000000
v 0.17994752 -0.46649640 0.60000000
v 0.19134172 -0.46193977 -0.60000000
v 0.19134172 -0.46193977 0.60000000
v 0.20262066 -0.45710488 -0.60000000
v 0.20262066 -0.45710488 0.60000000
v 0.21377755 -0.45199465 -0.60000000
v 0.21377755 -0.45199465 0.60000000
v 0.22480566 -0.44661215 -0.60000000
v 0.22480566 -0.44661215 0.60000000
v 0.23569837 -0.44096063 -0.60000000
v 0.23569837 -0.44096063 0.60000000
v 0.24644910 -0.43504350 -0.60000000
v 0.24644910 -0.43504350 0.60000000
v 0.25705137 -0.42886431 -0.60000000
v 0.25705137 -0.42886431 0.60000000
v 0.26749881 -0.42242678 -0.60000000
v 0.26749881 -0.42242678 0.60000000
v 0.27778512 -0.41573481 -0.60000000
v 0.27778512 -0.41573481 0.60000000
v 0.28790410 -0.40879241 -0.60000000
v 0.28790410 -0.40879241 0.60000000
v 0.29784965 -0.40160377 -0.60000000
v 0.29784965 -0.40160377 0.60000000
v 0.30761580 -0.39417321 -0.60000000
v 0.30761580 -0.39417321 0.60000000
v 0.31719664 -0.38650523 -0.60000000
v 0.31719664 -0.38650523 0.60000000
v 0.32658642 -0.37860442 -0.60000000
v 0.32658642 -0.37860442 0.60000000
v 0.33577948 -0.37047556 -0.60000000
v 0.33577948 -0.37047556 0.60000000
v 0.34477027 -0.36212354 -0.60000000
v 0.34477027 -0.36212354 0.60000000
v 0.35355339 -0.35355339 -0.60000000
v 0.35355339 -0.35355339 0.60000000
v 0.36212354 -0.34477027 -0.60000000
v 0.36212354 -0.34477027 0.60000000
v 0.37047556 -0.33577948 -0.60000000
v 0.37047556 -0.33577948 0.60000000
v 0.37860442 -0.32658642 -0.60000000
v 0.37860442 -0.32658642 0.60000000
v 0.38650523 -0.31719664 -0.60000000
v 0.38650523 -0.31719664 0.60000000
v 0.39417321 -0.30761580 -0.60000000
v 0.39417321 -0.30761580 0.60000000
v 0.40160377 -0.29784965 -0.60000000
v 0.40160377 -0.29784965 0.60000000
v 0.40879241 -0.28790410 -0.60000000
v 0.40879241 -0.28790410 0.60000000
v 0.41573481 -0.27778512 -0.60000000
v 0.41573481 -0.27778512 0.60000000
v 0.42242678 -0.26749881 -0.60000000
v 0.42242678 -0.26749881 0.60000000
v 0.42886431 -0.25705137 -0.60000000
v 0.42886431 -0.25705137 0.60000000
v 0.43504350 -0.24644910 -0.60000000
v 0.43504350 -0.24644910 0.60000000
v 0.44096063 -0.23569837 -0.60000000
v 0.44096063 -0.23569837 0.60000000
v 0.44661215 -0.22480566 -0.60000000
v 0.44661215 -0.22480566 0.60000000
v 0.45199465 -0.21377755 -0.60000000
v 0.45199465 -0.21377755 0.60000000
v 0.45710488 -0.20262066 -0.60000000
v 0.45710488 -0.20262066 0.60000000
v 0.46193977 -0.19134172 -0.60000000
v 0.46193977 -0.19134172 0.60000000
v 0.46649640 -0.17994752 -0.60000000
v 0.46649640 -0.17994752 0.60000000
v 0.47077203 -0.16844493 -0.60000000
v 0.47077203 -0.16844493 0.60000000
v 0.47476409 -0.15684087 -0.60000000
v 0.47476409 -0.15684087 0.60000000
v 0.47847017 -0.14514234 -0.60000000
v 0.47847017 -0.14514234 0.60000000
v 0.48188803 -0.13335638 -0.60000000
v 0.48188803 -0.13335638 0.60000000
v 0.48501563 -0.12149009 -0.60000000
v 0.48501563 -0.12149009 0.60000000
v 0.48785107 -0.10955062 -0.60000000
v 0.48785107 -0.10955062 0.60000000
v 0.49039264 -0.09754516 -0.60000000
v 0.49039264 -0.09754516 0.60000000
v 0.49263882 -0.08548094 -0.60000000
v 0.49263882 -0.08548094 0.60000000
v 0.49458825 -0.07336524 -0.60000000
v 0.49458825 -0.07336524 0.60000000
v 0.49623977 -0.06120534 -0.60000000
v 0.49623977 -0.06120534 0.60000000
v 0.49759236 -0.04900857 -0.60000000
v 0.49759236 -0.04900857 0.60000000
v 0.49864523 -0.03678228 -0.60000000
v 0.49864523 -0.03678228 0.60000000
v 0.49939773 -0.02453384 -0.60000000
v 0.49939773 -0.02453384 0.60000000
v 0.49984941 -0.01227061 -0.60000000
v 0.49984941 -0.01227061 0.60000000
f 2 1 5
f 2 5 3
f 3 5 6
f 3 6 4
f 5 1 7
f 5 7 6
f 6 7 8
f 6 8 4
f 7 1 9
f 7 9 8
f 8 9 10
f 8 10 4
f 9 1 11
f 9 11 10
f 10 11 12
f 10 12 4
f 11 1 13
f 11 13 12
f 12 13 14
f 12 14 4
f 13 1 15
f 13 15 14
f 14 15 16
f 14 16 4
f 15 1 17
f 15 17 16
f 16 17 18
f 16 18 4
f 17 1 19
f 17 19 18
f 18 19 20
f 18 20 4
f 19 1 21
f 19 21 20
f 20 21 22
f 20 22 4
f 21 1 23
f 21 23 22
f 22 23 24
f 22 24 4
f 23 1 25
f 23 25 24
f 24 25 26
f 24 26 4
f 25 1 27
f 25 27 26
f 26 27 28
f 26 28 4
f 27 1 29
f 27 29 28
f 28 29 30
f 28 30 4
f 29 1 31
f 29 31 30
f 30 31 32
f 30 32 4
f 31 1 33
f 31 33 32
f 32 33 34
f 32 34 4
f 33 1 35
f 33 35 34
f 34 35 36
f 34 36 4
f 35 1 37
f 35 37 36
f 36 37 38
f 36 38 4
f 37 1 39
f 37 39 38
f 38 39 40
f 38 40 4
f 39 1 41
f 39 41 40
f 40 41 42
f 40 42 4
f 41 1 43
f 41 43 42
f 42 43 44
f 42 44 4
f 43 1 45
f 43 45 44
f 44 45 46
f 44 46 4
f 45 1 47
f 45 47 46
f 46 47 48
f 46 48 4
f 47 1 49
f 47 49 48
f 48 49 50
f 48 50 4
f 49 1 51
f 49 51 50
f 50 51 52
f 50 52 4
f 51 1 53
f 51 53 52
f 52 53 54
f 52 54 4
f 53 1 55
f 53 55 54
f 54 55 56
f 54 56 4
f 55 1 57
f 55 57 56
f 56 57 58
f 56 58 4
f 57 1 59
f 57 59 58
f 58 59 60
f 58 60 4
f 59 1 61
f 59 61 60
f 60 61 62
f 60 62 4
f 61 1 63
f 61 63 62
f 62 63 64
f 62 64 4
f 63 1 65
f 63 65 64
f 64 65 66
f 64 66 4
f 65 1 67
f 65 67 66
f 66 67 68
f 66 68 4
f 67 1 69
f 67 69 68
f 68 69 70
f 68 70 4
f 69 1 71
f 69 71 70
f 70 71 72
f 70 72 4
f 71 1 73
f 71 73 72
f 72 73 74
f 72 74 4
f 73 1 75
f 73 75 74
f 74 75 76
f 74 76 4
f 75 1 77
f 75 77 76
f 76 77 78
f 76 78 4
f 77 1 79
f 77 79 78
f 78 79 80
f 78 80 4
f 79 1 81
f 79 81 80
f 80 81 82
f 80 82 4
f 81 1 83
f 81 83 82
f 82 83 84
f 82 84 4
f 83 1 85
f 83 85 84
f 84 85 86
f 84 86 4
f 85 1 87
f 85 87 86
f 86 87 88
f 86 88 4
f 87 1 89
f 87 89 88
f 88 89 90
f 88 90 4
f 89 1 91
f 89 91 90
f 90 91 92
f 90 92 4
f 91 1 93
f 91 93 92
f 92 93 94
f 92 94 4
f 93 1 95
f 93 95 94
f 94 95 96
f 94 96 4
f 95 1 97
f 95 97 96
f 96 97 98
f 96 98 4
f 97 1 99
f 97 99 98
f 98 99 100
f 98 100 4
f 99 1 101
f 99 101 100
f 100 101 102
f 100 102 4
f 101 1 103
f 101 103 102
f 102 103 104
f 102 104 4
f 103 1 105
f 103 105 104
f 104 105 106
f 104 106 4
f 105 1 107
f 105 107 106
f 106 107 108
f 106 108 4
f 107 1 109
f 107 109 108
f 108 109 110
f 108 110 4
f 109 1 111
f 109 111 110
f 110 111 112
f 110 112 4
f 111 1 113
f 111 113 112
f 112 113 114
f 112 114 4
f 113 1 115
f 113 115 114
f 114 115 116
f 114 116 4
f 115 1 117
f 115 117 116
f 116 117 118
f 116 118 4
f 117 1 119
f 117 119 118
f 118 119 120
f 118 120 4
f 119 1 121
f 119 121 120
f 120 121 122
f 120 122 4
f 121 1 123
f 121 123 122
f 122 123 124
f 122 124 4
f 123 1 125
f 123 125 124
f 124 125 126
f 124 126 4
f 125 1 127
f 125 127 126
f 126 127 128
f 126 128 4
f 127 1 129
f 127 129 128
f 128 129 130
f 128 130 4
f 129 1 131
f 129 131 130
f 130 131 132
f 130 132 4
f 131 1 133
f 131 133 132
f 132 133 134
f 132 134 4
f 133 1 135
f 133 135 134
f 134 135 136
f 134 136 4
f 135 1 137
f 135 137 136
f 136 137 138
f 136 138 4
f 137 1 139
f 137 139 138
f 138 139 140
f 138 140 4
f 139 1 141
f 139 141 140
f 140 141 142
f 140 142 4
f 141 1 143
f 141 143 142
f 142 143 144
f 142 144 4
f 143 1 145
f 143 145 144
f 144 145 146
f 144 146 4
f 145 1 147
f 145 147 146
f 146 147 148
f 146 148 4
f 147 1 149
f 147 149 148
f 148 149 150
f 148 150 4
f 149 1 151
f 149 151 150
f 150 151 152
f 150 152 4
f 151 1 153
f 151 153 152
f 152 153 154
f 152 154 4
f 153 1 155
f 153 155 154
f 154 155 156
f 154 156 4
f 155 1 157
f 155 157 156
f 156 157 158
f 156 158 4
f 157 1 159
f 157 159 158
f 158 159 160
f 158 160 4
f 159 1 161
f 159 161 160
f 160 161 162
f 160 162 4
f 161 1 163
f 161 163 162
f 162 163 164
f 162 164 4
f 163 1 165
f 163 165 164
f 164 165 166
f 164 166 4
f 165 1 167
f 165 167 166
f 166 167 168
f 166 168 4
f 167 1 169
f 167 169 168
f 168 169 170
f 168 170 4
f 169 1 171
f 169 171 170
f 170 171 172
f 170 172 4
f 171 1 173
f 171 173 172
f 172 173 174
f 172 174 4
f 173 1 175
f 173 175 174
f 174 175 176
f 174 176 4
f 175 1 177
f 175 177 176
f 176 177 178
f 176 178 4
f 177 1 179
f 177 179 178
f 178 179 180
f 178 180 4
f 179 1 181
f 179 181 180
f 180 181 182
f 180 182 4
f 181 1 183
f 181 183 182
f 182 183 184
f 182 184 4
f 183 1 185
f 183 185 184
f 184 185 186
f 184 186 4
f 185 1 187
f 185 187 186
f 186 187 188
f 186 188 4
f 187 1 189
f 187 189 188
f 188 189 190
f 188 190 4
f 189 1 191
f 189 191 190
f 190 191 192
f 190 192 4
f 191 1 193
f 191 193 192
f 192 193 194
f 192 194 4
f 193 1 195
f 193 195 194
f 194 195 196
f 194 196 4
f 195 1 197
f 195 197 196
f 196 197 198
f 196 198 4
f 197 1 199
f 197 199 198
f 198 199 200
f 198 200 4
f 199 1 201
f 199 201 200
f 200 201 202
f 200 202 4
f 201 1 203
f 201 203 202
f 202 203 204
f 202 204 4
f 203 1 205
f 203 205 204
f 204 205 206
f 204 206 4
f 205 1 207
f 205 207 206
f 206 207 208
f 206 208 4
f 207 1 209
f 207 209 208
f 208 209 210
f 208 210 4
f 209 1 211
f 209 211 210
f 210 211 212
f 210 212 4
f 211 1 213
f 211 213 212
f 212 213 214
f 212 214 4
f 213 1 215
f 213 215 214
f 214 215 216
f 214 216 4
f 215 1 217
f 215 217 216
f 216 217 218
f 216 218 4
f 217 1 219
f 217 219 218
f 218 219 220
f 218 220 4
f 219 1 221
f 219 221 220
f 220 221 222
f 220 222 4
f 221 1 223
f 221 223 222
f 222 223 224
f 222 224 4
f 223 1 225
f 223 225 224
f 224 225 226
f 224 226 4
f 225 1 227
f 225 227 226
f 226 227 228
f 226 228 4
f 227 1 229
f 227 229 228
f 228 229 230
f 228 230 4
f 229 1 231
f 229 231 230
f 230 231 232
f 230 232 4
f 231 1 233
f 231 233 232
f 232 233 234
f 232 234 4
f 233 1 235
f 233 235 234
f 234 235 236
f 234 236 4
f 235 1 237
f 235 237 236
f 236 237 238
f 236 238 4
f 237 1 239
f 237 239 238
f 238 239 240
f 238 240 4
f 239 1 241
f 239 241 240
f 240 241 242
f 240 242 4
f 241 1 243
f 241 243 242
f 242 243 244
f 242 244 4
f 243 1 245
f 243 245 244
f 244 245 246
f 244 246 4
f 245 1 247
f 245 247 246
f 246 247 248
f 246 248 4
f 247 1 249
f 247 249 248
f 248 249 250
f 248 250 4
f 249 1 251
f 249 251 250
f 250 251 252
f 250 252 4
f 251 1 253
f 251 253 252
f 252 253 254
f 252 254 4
f 253 1 255
f 253 255 254
f 254 255 256
f 254 256 4
f 255 1 257
f 255 257 256
f 256 257 258
f 256 258 4
f 257 1 259
f 257 259 258
f 258 259 260
f 258 260 4
f 259 1 261
f 259 261 260
f 260 261 262
f 260 262 4
f 261 1 263
f 261 263 262
f 262 263 264
f 262 264 4
f 263 1 265
f 263 265 264
f 264 265 266
f 264 266 4
f 265 1 267
f 265 267 266
f 266 267 268
f 266 268 4
f 267 1 269
f 267 269 268
f 268 269 270
f 268 270 4
f 269 1 271
f 269 271 270
f 270 271 272
f 270 272 4
f 271 1 273
f 271 273 272
f 272 273 274
f 272 274 4
f 273 1 275
f 273 275 274
f 274 275 276
f 274 276 4
f 275 1 277
f 275 277 276
f 276 277 278
f 276 278 4
f 277 1 279
f 277 279 278
f 278 279 280
f 278 280 4
f 279 1 281
f 279 281 280
f 280 281 282
f 280 282 4
f 281 1 283
f 281 283 282
f 282 283 284
f 282 284 4
f 283 1 285
f 283 285 284
f 284 285 286
f 284 286 4
f 285 1 287
f 285 287 286
f 286 287 288
f 286 288 4
f 287 1 289
f 287 289 288
f 288 289 290
f 288 290 4
f 289 1 291
f 289 291 290
f 290 291 292
f 290 292 4
f 291 1 293
f 291 293 292
f 292 293 294
f 292 294 4
f 293 1 295
f 293 295 294
f 294 295 296
f 294 296 4
f 295 1 297
f 295 297 296
f 296 297 298
f 296 298 4
f 297 1 299
f 297 299 298
f 298 299 300
f 298 300 4
f 299 1 301
f 299 301 300
f 300 301 302
f 300 302 4
f 301 1 303
f 301 303 302
f 302 303 304
f 302 304 4
f 303 1 305
f 303 305 304
f 304 305 306
f 304 306 4
f 305 1 307
f 305 307 306
f 306 307 308
f 306 308 4
f 307 1 309
f 307 309 308
f 308 309 310
f 308 310 4
f 309 1 311
f 309 311 310
f 310 311 312
f 310 312 4
f 311 1 313
f 311 313 312
f 312 313 314
f 312 314 4
f 313 1 315
f 313 315 314
f 314 315 316
f 314 316 4
f 315 1 317
f 315 317 316
f 316 317 318
f 316 318 4
f 317 1 319
f 317 319 318
f 318 319 320
f 318 320 4
f 319 1 321
f 319 321 320
f 320 321 322
f 320 322 4
f 321 1 323
f 321 323 322
f 322 323 324
f 322 324 4
f 323 1 325
f 323 325 324
f 324 325 326
f 324 326 4
f 325 1 327
f 325 327 326
f 326 327 328
f 326 328 4
f 327 1 329
f 327 329 328
f 328 329 330
f 328 330 4
f 329 1 331
f 329 331 330
f 330 331 332
f 330 332 4
f 331 1 333
f 331 333 332
f 332 333 334
f 332 334 4
f 333 1 335
f 333 335 334
f 334 335 336
f 334 336 4
f 335 1 337
f 335 337 336
f 336 337 338
f 336 338 4
f 337 1 339
f 337 339 338
f 338 339 340
f 338 340 4
f 339 1 341
f 339 341 340
f 340 341 342
f 340 342 4
f 341 1 343
f 341 343 342
f 342 343 344
f 342 344 4
f 343 1 345
f 343 345 344
f 344 345 346
f 344 346 4
f 345 1 347
f 345 347 346
f 346 347 348
f 346 348 4
f 347 1 349
f 347 349 348
f 348 349 350
f 348 350 4
f 349 1 351
f 349 351 350
f 350 351 352
f 350 352 4
f 351 1 353
f 351 353 352
f 352 353 354
f 352 354 4
f 353 1 355
f 353 355 354
f 354 355 356
f 354 356 4
f 355 1 357
f 355 357 356
f 356 357 358
f 356 358 4
f 357 1 359
f 357 359 358
f 358 359 360
f 358 360 4
f 359 1 361
f 359 361 360
f 360 361 362
f 360 362 4
f 361 1 363
f 361 363 362
f 362 363 364
f 362 364 4
f 363 1 365
f 363 365 364
f 364 365 366
f 364 366 4
f 365 1 367
f 365 367 366
f 366 367 368
f 366 368 4
f 367 1 369
f 367 369 368
f 368 369 370
f 368 370 4
f 369 1 371
f 369 371 370
f 370 371 372
f 370 372 4
f 371 1 373
f 371 373 372
f 372 373 374
f 372 374 4
f 373 1 375
f 373 375 374
f 374 375 376
f 374 376 4
f 375 1 377
f 375 377 376
f 376 377 378
f 376 378 4
f 377 1 379
f 377 379 378
f 378 379 380
f 378 380 4
f 379 1 381
f 379 381 380
f 380 381 382
f 380 382 4
f 381 1 383
f 381 383 382
f 382 383 384
f 382 384 4
f 383 1 385
f 383 385 384
f 384 385 386
f 384 386 4
f 385 1 387
f 385 387 386
f 386 387 388
f 386 388 4
f 387 1 389
f 387 389 388
f 388 389 390
f 388 390 4
f 389 1 391
f 389 391 390
f 390 391 392
f 390 392 4
f 391 1 393
f 391 393 392
f 392 393 394
f 392 394 4
f 393 1 395
f 393 395 394
f 394 395 396
f 394 396 4
f 395 1 397
f 395 397 396
f 396 397 398
f 396 398 4
f 397 1 399
f 397 399 398
f 398 399 400
f 398 400 4
f 399 1 401
f 399 401 400
f 400 401 402
f 400 402 4
f 401 1 403
f 401 403 402
f 402 403 404
f 402 404 4
f 403 1 405
f 403 405 404
f 404 405 406
f 404 406 4
f 405 1 407
f 405 407 406
f 406 407 408
f 406 408 4
f 407 1 409
f 407 409 408
f 408 409 410
f 408 410 4
f 409 1 411
f 409 411 410
f 410 411 412
f 410 412 4
f 411 1 413
f 411 413 412
f 412 413 414
f 412 414 4
f 413 1 415
f 413 415 414
f 414 415 416
f 414 416 4
f 415 1 417
f 415 417 416
f 416 417 418
f 416 418 4
f 417 1 419
f 417 419 418
f 418 419 420
f 418 420 4
f 419 1 421
f 419 421 420
f 420 421 422
f 420 422 4
f 421 1 423
f 421 423 422
f 422 423 424
f 422 424 4
f 423 1 425
f 423 425 424
f 424 425 426
f 424 426 4
f 425 1 427
f 425 427 426
f 426 427 428
f 426 428 4
f 427 1 429
f 427 429 428
f 428 429 430
f 428 430 4
f 429 1 431
f 429 431 430
f 430 431 432
f 430 432 4
f 431 1 433
f 431 433 432
f 432 433 434
f 432 434 4
f 433 1 435
f 433 435 434
f 434 435 436
f 434 436 4
f 435 1 437
f 435 437 436
f 436 437 438
f 436 438 4
f 437 1 439
f 437 439 438
f 438 439 440
f 438 440 4
f 439 1 441
f 439 441 440
f 440 441 442
f 440 442 4
f 441 1 443
f 441 443 442
f 442 443 444
f 442 444 4
f 443 1 445
f 443 445 444
f 444 445 446
f 444 446 4
f 445 1 447
f 445 447 446
f 446 447 448
f 446 448 4
f 447 1 449
f 447 449 448
f 448 449 450
f 448 450 4
f 449 1 451
f 449 451 450
f 450 451 452
f 450 452 4
f 451 1 453
f 451 453 452
f 452 453 454
f 452 454 4
f 453 1 455
f 453 455 454
f 454 455 456
f 454 456 4
f 455 1 457
f 455 457 456
f 456 457 458
f 456 458 4
f 457 1 459
f 457 459 458
f 458 459 460
f 458 460 4
f 459 1 461
f 459 461 460
f 460 461 462
f 460 462 4
f 461 1 463
f 461 463 462
f 462 463 464
f 462 464 4
f 463 1 465
f 463 465 464
f 464 465 466
f 464 466 4
f 465 1 467
f 465 467 466
f 466 467 468
f 466 468 4
f 467 1 469
f 467 469 468
f 468 469 470
f 468 470 4
f 469 1 471
f 469 471 470
f 470 471 472
f 470 472 4
f 471 1 473
f 471 473 472
f 472 473 474
f 472 474 4
f 473 1 475
f 473 475 474
f 474 475 476
f 474 476 4
f 475 1 477
f 475 477 476
f 476 477 478
f 476 478 4
f 477 1 479
f 477 479 478
f 478 479 480
f 478 480 4
f 479 1 481
f 479 481 480
f 480 481 482
f 480 482 4
f 481 1 483
f 481 483 482
f 482 483 484
f 482 484 4
f 483 1 485
f 483 485 484
f 484 485 486
f 484 486 4
f 485 1 487
f 485 487 486
f 486 487 488
f 486 488 4
f 487 1 489
f 487 489 488
f 488 489 490
f 488 490 4
f 489 1 491
f 489 491 490
f 490 491 492
f 490 492 4
f 491 1 493
f 491 493 492
f 492 493 494
f 492 494 4
f 493 1 495
f 493 495 494
f 494 495 496
f 494 496 4
f 495 1 497
f 495 497 496
f 496 497 498
f 496 498 4
f 497 1 499
f 497 499 498
f 498 499 500
f 498 500 4
f 499 1 501
f 499 501 500
f 500 501 502
f 500 502 4
f 501 1 503
f 501 503 502
f 502 503 504
f 502 504 4
f 503 1 505
f 503 505 504
f 504 505 506
f 504 506 4
f 505 1 507
f 505 507 506
f 506 507 508
f 506 508 4
f 507 1 509
f 507 509 508
f 508 509 510
f 508 510 4
f 509 1 511
f 509 511 510
f 510 511 512
f 510 512 4
f 511 1 513
f 511 513 512
f 512 513 514
f 512 514 4
f 513 1 2
f 513 2 514
f 514 2 3
f 514 3 4

