v 0 -0.17499999999999999 0
v 0 -0.11666666666666667 0
v 0 -0.058333333333333334 0
v 0 0 0
v 0 0.05833333333333332 0
v 0 0.11666666666666664 0
v 0 0.17499999999999999 0
v 0.10000000000000001 -0.17499999999999999 0.0012000000000000001
v 0.10000000000000001 -0.11666666666666667 0.0012000000000000001
v 0.10000000000000001 -0.058333333333333334 0.0012000000000000001
v 0.10000000000000001 0 0.0012000000000000001
v 0.10000000000000001 0.05833333333333332 0.0012000000000000001
v 0.10000000000000001 0.11666666666666664 0.0012000000000000001
v 0.10000000000000001 0.17499999999999999 0.0012000000000000001
v 0.20000000000000001 -0.17499999999999999 0.0024000000000000002
v 0.20000000000000001 -0.11666666666666667 0.0024000000000000002
v 0.20000000000000001 -0.058333333333333334 0.0024000000000000002
v 0.20000000000000001 0 0.0024000000000000002
v 0.20000000000000001 0.05833333333333332 0.0024000000000000002
v 0.20000000000000001 0.11666666666666664 0.0024000000000000002
v 0.20000000000000001 0.17499999999999999 0.0024000000000000002
v 0.30000000000000004 -0.17499999999999999 0.0036000000000000008
v 0.30000000000000004 -0.11666666666666667 0.0036000000000000008
v 0.30000000000000004 -0.058333333333333334 0.0036000000000000008
v 0.30000000000000004 0 0.0036000000000000008
v 0.30000000000000004 0.05833333333333332 0.0036000000000000008
v 0.30000000000000004 0.11666666666666664 0.0036000000000000008
v 0.30000000000000004 0.17499999999999999 0.0036000000000000008
v 0.40000000000000002 -0.17499999999999999 0.0048000000000000004
v 0.40000000000000002 -0.11666666666666667 0.0048000000000000004
v 0.40000000000000002 -0.058333333333333334 0.0048000000000000004
v 0.40000000000000002 0 0.0048000000000000004
v 0.40000000000000002 0.05833333333333332 0.0048000000000000004
v 0.40000000000000002 0.11666666666666664 0.0048000000000000004
v 0.40000000000000002 0.17499999999999999 0.0048000000000000004
v 0.5 -0.17499999999999999 0.0060000000000000001
v 0.5 -0.11666666666666667 0.0060000000000000001
v 0.5 -0.058333333333333334 0.0060000000000000001
v 0.5 0 0.0060000000000000001
v 0.5 0.05833333333333332 0.0060000000000000001
v 0.5 0.11666666666666664 0.0060000000000000001
v 0.5 0.17499999999999999 0.0060000000000000001
v 0.60000000000000009 -0.17499999999999999 0.0072000000000000015
v 0.60000000000000009 -0.11666666666666667 0.0072000000000000015
v 0.60000000000000009 -0.058333333333333334 0.0072000000000000015
v 0.60000000000000009 0 0.0072000000000000015
v 0.60000000000000009 0.05833333333333332 0.0072000000000000015
v 0.60000000000000009 0.11666666666666664 0.0072000000000000015
v 0.60000000000000009 0.17499999999999999 0.0072000000000000015
v 0.70000000000000007 -0.17499999999999999 0.0084000000000000012
v 0.70000000000000007 -0.11666666666666667 0.0084000000000000012
v 0.70000000000000007 -0.058333333333333334 0.0084000000000000012
v 0.70000000000000007 0 0.0084000000000000012
v 0.70000000000000007 0.05833333333333332 0.0084000000000000012
v 0.70000000000000007 0.11666666666666664 0.0084000000000000012
v 0.70000000000000007 0.17499999999999999 0.0084000000000000012
v 0.80000000000000004 -0.17499999999999999 0.0096000000000000009
v 0.80000000000000004 -0.11666666666666667 0.0096000000000000009
v 0.80000000000000004 -0.058333333333333334 0.0096000000000000009
v 0.80000000000000004 0 0.0096000000000000009
v 0.80000000000000004 0.05833333333333332 0.0096000000000000009
v 0.80000000000000004 0.11666666666666664 0.0096000000000000009
v 0.80000000000000004 0.17499999999999999 0.0096000000000000009
v 0.90000000000000002 -0.17499999999999999 0.010800000000000001
v 0.90000000000000002 -0.11666666666666667 0.010800000000000001
v 0.90000000000000002 -0.058333333333333334 0.010800000000000001
v 0.90000000000000002 0 0.010800000000000001
v 0.90000000000000002 0.05833333333333332 0.010800000000000001
v 0.90000000000000002 0.11666666666666664 0.010800000000000001
v 0.90000000000000002 0.17499999999999999 0.010800000000000001
v 1 -0.17499999999999999 0.012
v 1 -0.11666666666666667 0.012
v 1 -0.058333333333333334 0.012
v 1 0 0.012
v 1 0.05833333333333332 0.012
v 1 0.11666666666666664 0.012
v 1 0.17499999999999999 0.012
v 0.89999999999999991 -0.17499999999999999 0.013200000000000002
v 0.89999999999999991 -0.11666666666666667 0.013200000000000002
v 0.89999999999999991 -0.058333333333333334 0.013200000000000002
v 0.89999999999999991 0 0.013200000000000002
v 0.89999999999999991 0.05833333333333332 0.013200000000000002
v 0.89999999999999991 0.11666666666666664 0.013200000000000002
v 0.89999999999999991 0.17499999999999999 0.013200000000000002
v 0.79999999999999982 -0.17499999999999999 0.014400000000000003
v 0.79999999999999982 -0.11666666666666667 0.014400000000000003
v 0.79999999999999982 -0.058333333333333334 0.014400000000000003
v 0.79999999999999982 0 0.014400000000000003
v 0.79999999999999982 0.05833333333333332 0.014400000000000003
v 0.79999999999999982 0.11666666666666664 0.014400000000000003
v 0.79999999999999982 0.17499999999999999 0.014400000000000003
v 0.69999999999999996 -0.17499999999999999 0.015600000000000001
v 0.69999999999999996 -0.11666666666666667 0.015600000000000001
v 0.69999999999999996 -0.058333333333333334 0.015600000000000001
v 0.69999999999999996 0 0.015600000000000001
v 0.69999999999999996 0.05833333333333332 0.015600000000000001
v 0.69999999999999996 0.11666666666666664 0.015600000000000001
v 0.69999999999999996 0.17499999999999999 0.015600000000000001
v 0.59999999999999987 -0.17499999999999999 0.016800000000000002
v 0.59999999999999987 -0.11666666666666667 0.016800000000000002
v 0.59999999999999987 -0.058333333333333334 0.016800000000000002
v 0.59999999999999987 0 0.016800000000000002
v 0.59999999999999987 0.05833333333333332 0.016800000000000002
v 0.59999999999999987 0.11666666666666664 0.016800000000000002
v 0.59999999999999987 0.17499999999999999 0.016800000000000002
v 0.5 -0.17499999999999999 0.018000000000000002
v 0.5 -0.11666666666666667 0.018000000000000002
v 0.5 -0.058333333333333334 0.018000000000000002
v 0.5 0 0.018000000000000002
v 0.5 0.05833333333333332 0.018000000000000002
v 0.5 0.11666666666666664 0.018000000000000002
v 0.5 0.17499999999999999 0.018000000000000002
v 0.39999999999999991 -0.17499999999999999 0.019200000000000002
v 0.39999999999999991 -0.11666666666666667 0.019200000000000002
v 0.39999999999999991 -0.058333333333333334 0.019200000000000002
v 0.39999999999999991 0 0.019200000000000002
v 0.39999999999999991 0.05833333333333332 0.019200000000000002
v 0.39999999999999991 0.11666666666666664 0.019200000000000002
v 0.39999999999999991 0.17499999999999999 0.019200000000000002
v 0.29999999999999982 -0.17499999999999999 0.020400000000000001
v 0.29999999999999982 -0.11666666666666667 0.020400000000000001
v 0.29999999999999982 -0.058333333333333334 0.020400000000000001
v 0.29999999999999982 0 0.020400000000000001
v 0.29999999999999982 0.05833333333333332 0.020400000000000001
v 0.29999999999999982 0.11666666666666664 0.020400000000000001
v 0.29999999999999982 0.17499999999999999 0.020400000000000001
v 0.19999999999999996 -0.17499999999999999 0.021600000000000001
v 0.19999999999999996 -0.11666666666666667 0.021600000000000001
v 0.19999999999999996 -0.058333333333333334 0.021600000000000001
v 0.19999999999999996 0 0.021600000000000001
v 0.19999999999999996 0.05833333333333332 0.021600000000000001
v 0.19999999999999996 0.11666666666666664 0.021600000000000001
v 0.19999999999999996 0.17499999999999999 0.021600000000000001
v 0.099999999999999867 -0.17499999999999999 0.022800000000000001
v 0.099999999999999867 -0.11666666666666667 0.022800000000000001
v 0.099999999999999867 -0.058333333333333334 0.022800000000000001
v 0.099999999999999867 0 0.022800000000000001
v 0.099999999999999867 0.05833333333333332 0.022800000000000001
v 0.099999999999999867 0.11666666666666664 0.022800000000000001
v 0.099999999999999867 0.17499999999999999 0.022800000000000001
v 0 -0.17499999999999999 0.024
v 0 -0.11666666666666667 0.024
v 0 -0.058333333333333334 0.024
v 0 0 0.024
v 0 0.05833333333333332 0.024
v 0 0.11666666666666664 0.024
v 0 0.17499999999999999 0.024
v 0.10000000000000009 -0.17499999999999999 0.0252
v 0.10000000000000009 -0.11666666666666667 0.0252
v 0.10000000000000009 -0.058333333333333334 0.0252
v 0.10000000000000009 0 0.0252
v 0.10000000000000009 0.05833333333333332 0.0252
v 0.10000000000000009 0.11666666666666664 0.0252
v 0.10000000000000009 0.17499999999999999 0.0252
v 0.20000000000000018 -0.17499999999999999 0.026400000000000003
v 0.20000000000000018 -0.11666666666666667 0.026400000000000003
v 0.20000000000000018 -0.058333333333333334 0.026400000000000003
v 0.20000000000000018 0 0.026400000000000003
v 0.20000000000000018 0.05833333333333332 0.026400000000000003
v 0.20000000000000018 0.11666666666666664 0.026400000000000003
v 0.20000000000000018 0.17499999999999999 0.026400000000000003
v 0.30000000000000027 -0.17499999999999999 0.027600000000000003
v 0.30000000000000027 -0.11666666666666667 0.027600000000000003
v 0.30000000000000027 -0.058333333333333334 0.027600000000000003
v 0.30000000000000027 0 0.027600000000000003
v 0.30000000000000027 0.05833333333333332 0.027600000000000003
v 0.30000000000000027 0.11666666666666664 0.027600000000000003
v 0.30000000000000027 0.17499999999999999 0.027600000000000003
v 0.40000000000000036 -0.17499999999999999 0.028800000000000006
v 0.40000000000000036 -0.11666666666666667 0.028800000000000006
v 0.40000000000000036 -0.058333333333333334 0.028800000000000006
v 0.40000000000000036 0 0.028800000000000006
v 0.40000000000000036 0.05833333333333332 0.028800000000000006
v 0.40000000000000036 0.11666666666666664 0.028800000000000006
v 0.40000000000000036 0.17499999999999999 0.028800000000000006
v 0.5 -0.17499999999999999 0.029999999999999999
v 0.5 -0.11666666666666667 0.029999999999999999
v 0.5 -0.058333333333333334 0.029999999999999999
v 0.5 0 0.029999999999999999
v 0.5 0.05833333333333332 0.029999999999999999
v 0.5 0.11666666666666664 0.029999999999999999
v 0.5 0.17499999999999999 0.029999999999999999
v 0.60000000000000009 -0.17499999999999999 0.031200000000000002
v 0.60000000000000009 -0.11666666666666667 0.031200000000000002
v 0.60000000000000009 -0.058333333333333334 0.031200000000000002
v 0.60000000000000009 0 0.031200000000000002
v 0.60000000000000009 0.05833333333333332 0.031200000000000002
v 0.60000000000000009 0.11666666666666664 0.031200000000000002
v 0.60000000000000009 0.17499999999999999 0.031200000000000002
v 0.70000000000000018 -0.17499999999999999 0.032400000000000005
v 0.70000000000000018 -0.11666666666666667 0.032400000000000005
v 0.70000000000000018 -0.058333333333333334 0.032400000000000005
v 0.70000000000000018 0 0.032400000000000005
v 0.70000000000000018 0.05833333333333332 0.032400000000000005
v 0.70000000000000018 0.11666666666666664 0.032400000000000005
v 0.70000000000000018 0.17499999999999999 0.032400000000000005
v 0.80000000000000027 -0.17499999999999999 0.033600000000000005
v 0.80000000000000027 -0.11666666666666667 0.033600000000000005
v 0.80000000000000027 -0.058333333333333334 0.033600000000000005
v 0.80000000000000027 0 0.033600000000000005
v 0.80000000000000027 0.05833333333333332 0.033600000000000005
v 0.80000000000000027 0.11666666666666664 0.033600000000000005
v 0.80000000000000027 0.17499999999999999 0.033600000000000005
v 0.90000000000000036 -0.17499999999999999 0.034800000000000005
v 0.90000000000000036 -0.11666666666666667 0.034800000000000005
v 0.90000000000000036 -0.058333333333333334 0.034800000000000005
v 0.90000000000000036 0 0.034800000000000005
v 0.90000000000000036 0.05833333333333332 0.034800000000000005
v 0.90000000000000036 0.11666666666666664 0.034800000000000005
v 0.90000000000000036 0.17499999999999999 0.034800000000000005
v 1 -0.17499999999999999 0.036000000000000004
v 1 -0.11666666666666667 0.036000000000000004
v 1 -0.058333333333333334 0.036000000000000004
v 1 0 0.036000000000000004
v 1 0.05833333333333332 0.036000000000000004
v 1 0.11666666666666664 0.036000000000000004
v 1 0.17499999999999999 0.036000000000000004
v 0.89999999999999991 -0.17499999999999999 0.037200000000000004
v 0.89999999999999991 -0.11666666666666667 0.037200000000000004
v 0.89999999999999991 -0.058333333333333334 0.037200000000000004
v 0.89999999999999991 0 0.037200000000000004
v 0.89999999999999991 0.05833333333333332 0.037200000000000004
v 0.89999999999999991 0.11666666666666664 0.037200000000000004
v 0.89999999999999991 0.17499999999999999 0.037200000000000004
v 0.79999999999999982 -0.17499999999999999 0.038400000000000004
v 0.79999999999999982 -0.11666666666666667 0.038400000000000004
v 0.79999999999999982 -0.058333333333333334 0.038400000000000004
v 0.79999999999999982 0 0.038400000000000004
v 0.79999999999999982 0.05833333333333332 0.038400000000000004
v 0.79999999999999982 0.11666666666666664 0.038400000000000004
v 0.79999999999999982 0.17499999999999999 0.038400000000000004
v 0.69999999999999973 -0.17499999999999999 0.039600000000000003
v 0.69999999999999973 -0.11666666666666667 0.039600000000000003
v 0.69999999999999973 -0.058333333333333334 0.039600000000000003
v 0.69999999999999973 0 0.039600000000000003
v 0.69999999999999973 0.05833333333333332 0.039600000000000003
v 0.69999999999999973 0.11666666666666664 0.039600000000000003
v 0.69999999999999973 0.17499999999999999 0.039600000000000003
v 0.59999999999999964 -0.17499999999999999 0.040800000000000003
v 0.59999999999999964 -0.11666666666666667 0.040800000000000003
v 0.59999999999999964 -0.058333333333333334 0.040800000000000003
v 0.59999999999999964 0 0.040800000000000003
v 0.59999999999999964 0.05833333333333332 0.040800000000000003
v 0.59999999999999964 0.11666666666666664 0.040800000000000003
v 0.59999999999999964 0.17499999999999999 0.040800000000000003
v 0.5 -0.17499999999999999 0.042000000000000003
v 0.5 -0.11666666666666667 0.042000000000000003
v 0.5 -0.058333333333333334 0.042000000000000003
v 0.5 0 0.042000000000000003
v 0.5 0.05833333333333332 0.042000000000000003
v 0.5 0.11666666666666664 0.042000000000000003
v 0.5 0.17499999999999999 0.042000000000000003
v 0.39999999999999991 -0.17499999999999999 0.043200000000000002
v 0.39999999999999991 -0.11666666666666667 0.043200000000000002
v 0.39999999999999991 -0.058333333333333334 0.043200000000000002
v 0.39999999999999991 0 0.043200000000000002
v 0.39999999999999991 0.05833333333333332 0.043200000000000002
v 0.39999999999999991 0.11666666666666664 0.043200000000000002
v 0.39999999999999991 0.17499999999999999 0.043200000000000002
v 0.29999999999999982 -0.17499999999999999 0.044400000000000002
v 0.29999999999999982 -0.11666666666666667 0.044400000000000002
v 0.29999999999999982 -0.058333333333333334 0.044400000000000002
v 0.29999999999999982 0 0.044400000000000002
v 0.29999999999999982 0.05833333333333332 0.044400000000000002
v 0.29999999999999982 0.11666666666666664 0.044400000000000002
v 0.29999999999999982 0.17499999999999999 0.044400000000000002
v 0.19999999999999973 -0.17499999999999999 0.045600000000000002
v 0.19999999999999973 -0.11666666666666667 0.045600000000000002
v 0.19999999999999973 -0.058333333333333334 0.045600000000000002
v 0.19999999999999973 0 0.045600000000000002
v 0.19999999999999973 0.05833333333333332 0.045600000000000002
v 0.19999999999999973 0.11666666666666664 0.045600000000000002
v 0.19999999999999973 0.17499999999999999 0.045600000000000002
v 0.099999999999999645 -0.17499999999999999 0.046800000000000008
v 0.099999999999999645 -0.11666666666666667 0.046800000000000008
v 0.099999999999999645 -0.058333333333333334 0.046800000000000008
v 0.099999999999999645 0 0.046800000000000008
v 0.099999999999999645 0.05833333333333332 0.046800000000000008
v 0.099999999999999645 0.11666666666666664 0.046800000000000008
v 0.099999999999999645 0.17499999999999999 0.046800000000000008
v 0 -0.17499999999999999 0.048000000000000001
v 0 -0.11666666666666667 0.048000000000000001
v 0 -0.058333333333333334 0.048000000000000001
v 0 0 0.048000000000000001
v 0 0.05833333333333332 0.048000000000000001
v 0 0.11666666666666664 0.048000000000000001
v 0 0.17499999999999999 0.048000000000000001
v 0.10000000000000053 -0.17499999999999999 0.049200000000000008
v 0.10000000000000053 -0.11666666666666667 0.049200000000000008
v 0.10000000000000053 -0.058333333333333334 0.049200000000000008
v 0.10000000000000053 0 0.049200000000000008
v 0.10000000000000053 0.05833333333333332 0.049200000000000008
v 0.10000000000000053 0.11666666666666664 0.049200000000000008
v 0.10000000000000053 0.17499999999999999 0.049200000000000008
v 0.20000000000000018 -0.17499999999999999 0.0504
v 0.20000000000000018 -0.11666666666666667 0.0504
v 0.20000000000000018 -0.058333333333333334 0.0504
v 0.20000000000000018 0 0.0504
v 0.20000000000000018 0.05833333333333332 0.0504
v 0.20000000000000018 0.11666666666666664 0.0504
v 0.20000000000000018 0.17499999999999999 0.0504
v 0.29999999999999982 -0.17499999999999999 0.0516
v 0.29999999999999982 -0.11666666666666667 0.0516
v 0.29999999999999982 -0.058333333333333334 0.0516
v 0.29999999999999982 0 0.0516
v 0.29999999999999982 0.05833333333333332 0.0516
v 0.29999999999999982 0.11666666666666664 0.0516
v 0.29999999999999982 0.17499999999999999 0.0516
v 0.40000000000000036 -0.17499999999999999 0.052800000000000007
v 0.40000000000000036 -0.11666666666666667 0.052800000000000007
v 0.40000000000000036 -0.058333333333333334 0.052800000000000007
v 0.40000000000000036 0 0.052800000000000007
v 0.40000000000000036 0.05833333333333332 0.052800000000000007
v 0.40000000000000036 0.11666666666666664 0.052800000000000007
v 0.40000000000000036 0.17499999999999999 0.052800000000000007
v 0.5 -0.17499999999999999 0.053999999999999999
v 0.5 -0.11666666666666667 0.053999999999999999
v 0.5 -0.058333333333333334 0.053999999999999999
v 0.5 0 0.053999999999999999
v 0.5 0.05833333333333332 0.053999999999999999
v 0.5 0.11666666666666664 0.053999999999999999
v 0.5 0.17499999999999999 0.053999999999999999
v 0.60000000000000053 -0.17499999999999999 0.055200000000000006
v 0.60000000000000053 -0.11666666666666667 0.055200000000000006
v 0.60000000000000053 -0.058333333333333334 0.055200000000000006
v 0.60000000000000053 0 0.055200000000000006
v 0.60000000000000053 0.05833333333333332 0.055200000000000006
v 0.60000000000000053 0.11666666666666664 0.055200000000000006
v 0.60000000000000053 0.17499999999999999 0.055200000000000006
v 0.70000000000000018 -0.17499999999999999 0.056400000000000006
v 0.70000000000000018 -0.11666666666666667 0.056400000000000006
v 0.70000000000000018 -0.058333333333333334 0.056400000000000006
v 0.70000000000000018 0 0.056400000000000006
v 0.70000000000000018 0.05833333333333332 0.056400000000000006
v 0.70000000000000018 0.11666666666666664 0.056400000000000006
v 0.70000000000000018 0.17499999999999999 0.056400000000000006
v 0.80000000000000071 -0.17499999999999999 0.057600000000000012
v 0.80000000000000071 -0.11666666666666667 0.057600000000000012
v 0.80000000000000071 -0.058333333333333334 0.057600000000000012
v 0.80000000000000071 0 0.057600000000000012
v 0.80000000000000071 0.05833333333333332 0.057600000000000012
v 0.80000000000000071 0.11666666666666664 0.057600000000000012
v 0.80000000000000071 0.17499999999999999 0.057600000000000012
v 0.90000000000000036 -0.17499999999999999 0.058800000000000005
v 0.90000000000000036 -0.11666666666666667 0.058800000000000005
v 0.90000000000000036 -0.058333333333333334 0.058800000000000005
v 0.90000000000000036 0 0.058800000000000005
v 0.90000000000000036 0.05833333333333332 0.058800000000000005
v 0.90000000000000036 0.11666666666666664 0.058800000000000005
v 0.90000000000000036 0.17499999999999999 0.058800000000000005
v 1 -0.17499999999999999 0.059999999999999998
v 1 -0.11666666666666667 0.059999999999999998
v 1 -0.058333333333333334 0.059999999999999998
v 1 0 0.059999999999999998
v 1 0.05833333333333332 0.059999999999999998
v 1 0.11666666666666664 0.059999999999999998
v 1 0.17499999999999999 0.059999999999999998
v 0.89999999999999947 -0.17499999999999999 0.061200000000000004
v 0.89999999999999947 -0.11666666666666667 0.061200000000000004
v 0.89999999999999947 -0.058333333333333334 0.061200000000000004
v 0.89999999999999947 0 0.061200000000000004
v 0.89999999999999947 0.05833333333333332 0.061200000000000004
v 0.89999999999999947 0.11666666666666664 0.061200000000000004
v 0.89999999999999947 0.17499999999999999 0.061200000000000004
v 0.79999999999999982 -0.17499999999999999 0.062400000000000004
v 0.79999999999999982 -0.11666666666666667 0.062400000000000004
v 0.79999999999999982 -0.058333333333333334 0.062400000000000004
v 0.79999999999999982 0 0.062400000000000004
v 0.79999999999999982 0.05833333333333332 0.062400000000000004
v 0.79999999999999982 0.11666666666666664 0.062400000000000004
v 0.79999999999999982 0.17499999999999999 0.062400000000000004
v 0.69999999999999929 -0.17499999999999999 0.063600000000000004
v 0.69999999999999929 -0.11666666666666667 0.063600000000000004
v 0.69999999999999929 -0.058333333333333334 0.063600000000000004
v 0.69999999999999929 0 0.063600000000000004
v 0.69999999999999929 0.05833333333333332 0.063600000000000004
v 0.69999999999999929 0.11666666666666664 0.063600000000000004
v 0.69999999999999929 0.17499999999999999 0.063600000000000004
v 0.59999999999999964 -0.17499999999999999 0.06480000000000001
v 0.59999999999999964 -0.11666666666666667 0.06480000000000001
v 0.59999999999999964 -0.058333333333333334 0.06480000000000001
v 0.59999999999999964 0 0.06480000000000001
v 0.59999999999999964 0.05833333333333332 0.06480000000000001
v 0.59999999999999964 0.11666666666666664 0.06480000000000001
v 0.59999999999999964 0.17499999999999999 0.06480000000000001
v 0.5 -0.17499999999999999 0.066000000000000003
v 0.5 -0.11666666666666667 0.066000000000000003
v 0.5 -0.058333333333333334 0.066000000000000003
v 0.5 0 0.066000000000000003
v 0.5 0.05833333333333332 0.066000000000000003
v 0.5 0.11666666666666664 0.066000000000000003
v 0.5 0.17499999999999999 0.066000000000000003
v 0.39999999999999947 -0.17499999999999999 0.06720000000000001
v 0.39999999999999947 -0.11666666666666667 0.06720000000000001
v 0.39999999999999947 -0.058333333333333334 0.06720000000000001
v 0.39999999999999947 0 0.06720000000000001
v 0.39999999999999947 0.05833333333333332 0.06720000000000001
v 0.39999999999999947 0.11666666666666664 0.06720000000000001
v 0.39999999999999947 0.17499999999999999 0.06720000000000001
v 0.29999999999999982 -0.17499999999999999 0.068400000000000002
v 0.29999999999999982 -0.11666666666666667 0.068400000000000002
v 0.29999999999999982 -0.058333333333333334 0.068400000000000002
v 0.29999999999999982 0 0.068400000000000002
v 0.29999999999999982 0.05833333333333332 0.068400000000000002
v 0.29999999999999982 0.11666666666666664 0.068400000000000002
v 0.29999999999999982 0.17499999999999999 0.068400000000000002
v 0.19999999999999929 -0.17499999999999999 0.069600000000000009
v 0.19999999999999929 -0.11666666666666667 0.069600000000000009
v 0.19999999999999929 -0.058333333333333334 0.069600000000000009
v 0.19999999999999929 0 0.069600000000000009
v 0.19999999999999929 0.05833333333333332 0.069600000000000009
v 0.19999999999999929 0.11666666666666664 0.069600000000000009
v 0.19999999999999929 0.17499999999999999 0.069600000000000009
v 0.099999999999999645 -0.17499999999999999 0.070800000000000002
v 0.099999999999999645 -0.11666666666666667 0.070800000000000002
v 0.099999999999999645 -0.058333333333333334 0.070800000000000002
v 0.099999999999999645 0 0.070800000000000002
v 0.099999999999999645 0.05833333333333332 0.070800000000000002
v 0.099999999999999645 0.11666666666666664 0.070800000000000002
v 0.099999999999999645 0.17499999999999999 0.070800000000000002
v 0 -0.17499999999999999 0.072000000000000008
v 0 -0.11666666666666667 0.072000000000000008
v 0 -0.058333333333333334 0.072000000000000008
v 0 0 0.072000000000000008
v 0 0.05833333333333332 0.072000000000000008
v 0 0.11666666666666664 0.072000000000000008
v 0 0.17499999999999999 0.072000000000000008
v 0.10000000000000053 -0.17499999999999999 0.073200000000000001
v 0.10000000000000053 -0.11666666666666667 0.073200000000000001
v 0.10000000000000053 -0.058333333333333334 0.073200000000000001
v 0.10000000000000053 0 0.073200000000000001
v 0.10000000000000053 0.05833333333333332 0.073200000000000001
v 0.10000000000000053 0.11666666666666664 0.073200000000000001
v 0.10000000000000053 0.17499999999999999 0.073200000000000001
v 0.20000000000000018 -0.17499999999999999 0.074400000000000008
v 0.20000000000000018 -0.11666666666666667 0.074400000000000008
v 0.20000000000000018 -0.058333333333333334 0.074400000000000008
v 0.20000000000000018 0 0.074400000000000008
v 0.20000000000000018 0.05833333333333332 0.074400000000000008
v 0.20000000000000018 0.11666666666666664 0.074400000000000008
v 0.20000000000000018 0.17499999999999999 0.074400000000000008
v 0.30000000000000071 -0.17499999999999999 0.075600000000000014
v 0.30000000000000071 -0.11666666666666667 0.075600000000000014
v 0.30000000000000071 -0.058333333333333334 0.075600000000000014
v 0.30000000000000071 0 0.075600000000000014
v 0.30000000000000071 0.05833333333333332 0.075600000000000014
v 0.30000000000000071 0.11666666666666664 0.075600000000000014
v 0.30000000000000071 0.17499999999999999 0.075600000000000014
v 0.40000000000000036 -0.17499999999999999 0.076800000000000007
v 0.40000000000000036 -0.11666666666666667 0.076800000000000007
v 0.40000000000000036 -0.058333333333333334 0.076800000000000007
v 0.40000000000000036 0 0.076800000000000007
v 0.40000000000000036 0.05833333333333332 0.076800000000000007
v 0.40000000000000036 0.11666666666666664 0.076800000000000007
v 0.40000000000000036 0.17499999999999999 0.076800000000000007
v 0.5 -0.17499999999999999 0.078
v 0.5 -0.11666666666666667 0.078
v 0.5 -0.058333333333333334 0.078
v 0.5 0 0.078
v 0.5 0.05833333333333332 0.078
v 0.5 0.11666666666666664 0.078
v 0.5 0.17499999999999999 0.078
v 0.60000000000000053 -0.17499999999999999 0.079200000000000007
v 0.60000000000000053 -0.11666666666666667 0.079200000000000007
v 0.60000000000000053 -0.058333333333333334 0.079200000000000007
v 0.60000000000000053 0 0.079200000000000007
v 0.60000000000000053 0.05833333333333332 0.079200000000000007
v 0.60000000000000053 0.11666666666666664 0.079200000000000007
v 0.60000000000000053 0.17499999999999999 0.079200000000000007
v 0.70000000000000018 -0.17499999999999999 0.080399999999999999
v 0.70000000000000018 -0.11666666666666667 0.080399999999999999
v 0.70000000000000018 -0.058333333333333334 0.080399999999999999
v 0.70000000000000018 0 0.080399999999999999
v 0.70000000000000018 0.05833333333333332 0.080399999999999999
v 0.70000000000000018 0.11666666666666664 0.080399999999999999
v 0.70000000000000018 0.17499999999999999 0.080399999999999999
v 0.80000000000000071 -0.17499999999999999 0.081600000000000006
v 0.80000000000000071 -0.11666666666666667 0.081600000000000006
v 0.80000000000000071 -0.058333333333333334 0.081600000000000006
v 0.80000000000000071 0 0.081600000000000006
v 0.80000000000000071 0.05833333333333332 0.081600000000000006
v 0.80000000000000071 0.11666666666666664 0.081600000000000006
v 0.80000000000000071 0.17499999999999999 0.081600000000000006
v 0.90000000000000036 -0.17499999999999999 0.082800000000000012
v 0.90000000000000036 -0.11666666666666667 0.082800000000000012
v 0.90000000000000036 -0.058333333333333334 0.082800000000000012
v 0.90000000000000036 0 0.082800000000000012
v 0.90000000000000036 0.05833333333333332 0.082800000000000012
v 0.90000000000000036 0.11666666666666664 0.082800000000000012
v 0.90000000000000036 0.17499999999999999 0.082800000000000012
v 1 -0.17499999999999999 0.084000000000000005
v 1 -0.11666666666666667 0.084000000000000005
v 1 -0.058333333333333334 0.084000000000000005
v 1 0 0.084000000000000005
v 1 0.05833333333333332 0.084000000000000005
v 1 0.11666666666666664 0.084000000000000005
v 1 0.17499999999999999 0.084000000000000005
v 0.89999999999999947 -0.17499999999999999 0.085200000000000012
v 0.89999999999999947 -0.11666666666666667 0.085200000000000012
v 0.89999999999999947 -0.058333333333333334 0.085200000000000012
v 0.89999999999999947 0 0.085200000000000012
v 0.89999999999999947 0.05833333333333332 0.085200000000000012
v 0.89999999999999947 0.11666666666666664 0.085200000000000012
v 0.89999999999999947 0.17499999999999999 0.085200000000000012
v 0.79999999999999982 -0.17499999999999999 0.086400000000000005
v 0.79999999999999982 -0.11666666666666667 0.086400000000000005
v 0.79999999999999982 -0.058333333333333334 0.086400000000000005
v 0.79999999999999982 0 0.086400000000000005
v 0.79999999999999982 0.05833333333333332 0.086400000000000005
v 0.79999999999999982 0.11666666666666664 0.086400000000000005
v 0.79999999999999982 0.17499999999999999 0.086400000000000005
v 0.69999999999999929 -0.17499999999999999 0.087600000000000011
v 0.69999999999999929 -0.11666666666666667 0.087600000000000011
v 0.69999999999999929 -0.058333333333333334 0.087600000000000011
v 0.69999999999999929 0 0.087600000000000011
v 0.69999999999999929 0.05833333333333332 0.087600000000000011
v 0.69999999999999929 0.11666666666666664 0.087600000000000011
v 0.69999999999999929 0.17499999999999999 0.087600000000000011
v 0.59999999999999964 -0.17499999999999999 0.088800000000000004
v 0.59999999999999964 -0.11666666666666667 0.088800000000000004
v 0.59999999999999964 -0.058333333333333334 0.088800000000000004
v 0.59999999999999964 0 0.088800000000000004
v 0.59999999999999964 0.05833333333333332 0.088800000000000004
v 0.59999999999999964 0.11666666666666664 0.088800000000000004
v 0.59999999999999964 0.17499999999999999 0.088800000000000004
v 0.5 -0.17499999999999999 0.089999999999999997
v 0.5 -0.11666666666666667 0.089999999999999997
v 0.5 -0.058333333333333334 0.089999999999999997
v 0.5 0 0.089999999999999997
v 0.5 0.05833333333333332 0.089999999999999997
v 0.5 0.11666666666666664 0.089999999999999997
v 0.5 0.17499999999999999 0.089999999999999997
v 0.39999999999999947 -0.17499999999999999 0.091200000000000003
v 0.39999999999999947 -0.11666666666666667 0.091200000000000003
v 0.39999999999999947 -0.058333333333333334 0.091200000000000003
v 0.39999999999999947 0 0.091200000000000003
v 0.39999999999999947 0.05833333333333332 0.091200000000000003
v 0.39999999999999947 0.11666666666666664 0.091200000000000003
v 0.39999999999999947 0.17499999999999999 0.091200000000000003
v 0.29999999999999982 -0.17499999999999999 0.09240000000000001
v 0.29999999999999982 -0.11666666666666667 0.09240000000000001
v 0.29999999999999982 -0.058333333333333334 0.09240000000000001
v 0.29999999999999982 0 0.09240000000000001
v 0.29999999999999982 0.05833333333333332 0.09240000000000001
v 0.29999999999999982 0.11666666666666664 0.09240000000000001
v 0.29999999999999982 0.17499999999999999 0.09240000000000001
v 0.19999999999999929 -0.17499999999999999 0.093600000000000017
v 0.19999999999999929 -0.11666666666666667 0.093600000000000017
v 0.19999999999999929 -0.058333333333333334 0.093600000000000017
v 0.19999999999999929 0 0.093600000000000017
v 0.19999999999999929 0.05833333333333332 0.093600000000000017
v 0.19999999999999929 0.11666666666666664 0.093600000000000017
v 0.19999999999999929 0.17499999999999999 0.093600000000000017
v 0.099999999999999645 -0.17499999999999999 0.094800000000000009
v 0.099999999999999645 -0.11666666666666667 0.094800000000000009
v 0.099999999999999645 -0.058333333333333334 0.094800000000000009
v 0.099999999999999645 0 0.094800000000000009
v 0.099999999999999645 0.05833333333333332 0.094800000000000009
v 0.099999999999999645 0.11666666666666664 0.094800000000000009
v 0.099999999999999645 0.17499999999999999 0.094800000000000009
v 0 -0.17499999999999999 0.096000000000000002
v 0 -0.11666666666666667 0.096000000000000002
v 0 -0.058333333333333334 0.096000000000000002
v 0 0 0.096000000000000002
v 0 0.05833333333333332 0.096000000000000002
v 0 0.11666666666666664 0.096000000000000002
v 0 0.17499999999999999 0.096000000000000002
v 0.099999999999999645 -0.17499999999999999 0.097199999999999995
v 0.099999999999999645 -0.11666666666666667 0.097199999999999995
v 0.099999999999999645 -0.058333333333333334 0.097199999999999995
v 0.099999999999999645 0 0.097199999999999995
v 0.099999999999999645 0.05833333333333332 0.097199999999999995
v 0.099999999999999645 0.11666666666666664 0.097199999999999995
v 0.099999999999999645 0.17499999999999999 0.097199999999999995
v 0.20000000000000107 -0.17499999999999999 0.098400000000000015
v 0.20000000000000107 -0.11666666666666667 0.098400000000000015
v 0.20000000000000107 -0.058333333333333334 0.098400000000000015
v 0.20000000000000107 0 0.098400000000000015
v 0.20000000000000107 0.05833333333333332 0.098400000000000015
v 0.20000000000000107 0.11666666666666664 0.098400000000000015
v 0.20000000000000107 0.17499999999999999 0.098400000000000015
v 0.30000000000000071 -0.17499999999999999 0.099600000000000008
v 0.30000000000000071 -0.11666666666666667 0.099600000000000008
v 0.30000000000000071 -0.058333333333333334 0.099600000000000008
v 0.30000000000000071 0 0.099600000000000008
v 0.30000000000000071 0.05833333333333332 0.099600000000000008
v 0.30000000000000071 0.11666666666666664 0.099600000000000008
v 0.30000000000000071 0.17499999999999999 0.099600000000000008
v 0.40000000000000036 -0.17499999999999999 0.1008
v 0.40000000000000036 -0.11666666666666667 0.1008
v 0.40000000000000036 -0.058333333333333334 0.1008
v 0.40000000000000036 0 0.1008
v 0.40000000000000036 0.05833333333333332 0.1008
v 0.40000000000000036 0.11666666666666664 0.1008
v 0.40000000000000036 0.17499999999999999 0.1008
v 0.5 -0.17499999999999999 0.10200000000000001
v 0.5 -0.11666666666666667 0.10200000000000001
v 0.5 -0.058333333333333334 0.10200000000000001
v 0.5 0 0.10200000000000001
v 0.5 0.05833333333333332 0.10200000000000001
v 0.5 0.11666666666666664 0.10200000000000001
v 0.5 0.17499999999999999 0.10200000000000001
v 0.59999999999999964 -0.17499999999999999 0.1032
v 0.59999999999999964 -0.11666666666666667 0.1032
v 0.59999999999999964 -0.058333333333333334 0.1032
v 0.59999999999999964 0 0.1032
v 0.59999999999999964 0.05833333333333332 0.1032
v 0.59999999999999964 0.11666666666666664 0.1032
v 0.59999999999999964 0.17499999999999999 0.1032
v 0.70000000000000107 -0.17499999999999999 0.10440000000000002
v 0.70000000000000107 -0.11666666666666667 0.10440000000000002
v 0.70000000000000107 -0.058333333333333334 0.10440000000000002
v 0.70000000000000107 0 0.10440000000000002
v 0.70000000000000107 0.05833333333333332 0.10440000000000002
v 0.70000000000000107 0.11666666666666664 0.10440000000000002
v 0.70000000000000107 0.17499999999999999 0.10440000000000002
v 0.80000000000000071 -0.17499999999999999 0.10560000000000001
v 0.80000000000000071 -0.11666666666666667 0.10560000000000001
v 0.80000000000000071 -0.058333333333333334 0.10560000000000001
v 0.80000000000000071 0 0.10560000000000001
v 0.80000000000000071 0.05833333333333332 0.10560000000000001
v 0.80000000000000071 0.11666666666666664 0.10560000000000001
v 0.80000000000000071 0.17499999999999999 0.10560000000000001
v 0.90000000000000036 -0.17499999999999999 0.10680000000000001
v 0.90000000000000036 -0.11666666666666667 0.10680000000000001
v 0.90000000000000036 -0.058333333333333334 0.10680000000000001
v 0.90000000000000036 0 0.10680000000000001
v 0.90000000000000036 0.05833333333333332 0.10680000000000001
v 0.90000000000000036 0.11666666666666664 0.10680000000000001
v 0.90000000000000036 0.17499999999999999 0.10680000000000001
v 1 -0.17499999999999999 0.108
v 1 -0.11666666666666667 0.108
v 1 -0.058333333333333334 0.108
v 1 0 0.108
v 1 0.05833333333333332 0.108
v 1 0.11666666666666664 0.108
v 1 0.17499999999999999 0.108
v 0.90000000000000036 -0.17499999999999999 0.10919999999999999
v 0.90000000000000036 -0.11666666666666667 0.10919999999999999
v 0.90000000000000036 -0.058333333333333334 0.10919999999999999
v 0.90000000000000036 0 0.10919999999999999
v 0.90000000000000036 0.05833333333333332 0.10919999999999999
v 0.90000000000000036 0.11666666666666664 0.10919999999999999
v 0.90000000000000036 0.17499999999999999 0.10919999999999999
v 0.79999999999999893 -0.17499999999999999 0.11040000000000001
v 0.79999999999999893 -0.11666666666666667 0.11040000000000001
v 0.79999999999999893 -0.058333333333333334 0.11040000000000001
v 0.79999999999999893 0 0.11040000000000001
v 0.79999999999999893 0.05833333333333332 0.11040000000000001
v 0.79999999999999893 0.11666666666666664 0.11040000000000001
v 0.79999999999999893 0.17499999999999999 0.11040000000000001
v 0.69999999999999929 -0.17499999999999999 0.1116
v 0.69999999999999929 -0.11666666666666667 0.1116
v 0.69999999999999929 -0.058333333333333334 0.1116
v 0.69999999999999929 0 0.1116
v 0.69999999999999929 0.05833333333333332 0.1116
v 0.69999999999999929 0.11666666666666664 0.1116
v 0.69999999999999929 0.17499999999999999 0.1116
v 0.59999999999999964 -0.17499999999999999 0.11280000000000001
v 0.59999999999999964 -0.11666666666666667 0.11280000000000001
v 0.59999999999999964 -0.058333333333333334 0.11280000000000001
v 0.59999999999999964 0 0.11280000000000001
v 0.59999999999999964 0.05833333333333332 0.11280000000000001
v 0.59999999999999964 0.11666666666666664 0.11280000000000001
v 0.59999999999999964 0.17499999999999999 0.11280000000000001
v 0.5 -0.17499999999999999 0.114
v 0.5 -0.11666666666666667 0.114
v 0.5 -0.058333333333333334 0.114
v 0.5 0 0.114
v 0.5 0.05833333333333332 0.114
v 0.5 0.11666666666666664 0.114
v 0.5 0.17499999999999999 0.114
v 0.39999999999999858 -0.17499999999999999 0.11520000000000002
v 0.39999999999999858 -0.11666666666666667 0.11520000000000002
v 0.39999999999999858 -0.058333333333333334 0.11520000000000002
v 0.39999999999999858 0 0.11520000000000002
v 0.39999999999999858 0.05833333333333332 0.11520000000000002
v 0.39999999999999858 0.11666666666666664 0.11520000000000002
v 0.39999999999999858 0.17499999999999999 0.11520000000000002
v 0.29999999999999893 -0.17499999999999999 0.11640000000000002
v 0.29999999999999893 -0.11666666666666667 0.11640000000000002
v 0.29999999999999893 -0.058333333333333334 0.11640000000000002
v 0.29999999999999893 0 0.11640000000000002
v 0.29999999999999893 0.05833333333333332 0.11640000000000002
v 0.29999999999999893 0.11666666666666664 0.11640000000000002
v 0.29999999999999893 0.17499999999999999 0.11640000000000002
v 0.19999999999999929 -0.17499999999999999 0.11760000000000001
v 0.19999999999999929 -0.11666666666666667 0.11760000000000001
v 0.19999999999999929 -0.058333333333333334 0.11760000000000001
v 0.19999999999999929 0 0.11760000000000001
v 0.19999999999999929 0.05833333333333332 0.11760000000000001
v 0.19999999999999929 0.11666666666666664 0.11760000000000001
v 0.19999999999999929 0.17499999999999999 0.11760000000000001
v 0.099999999999999645 -0.17499999999999999 0.1188
v 0.099999999999999645 -0.11666666666666667 0.1188
v 0.099999999999999645 -0.058333333333333334 0.1188
v 0.099999999999999645 0 0.1188
v 0.099999999999999645 0.05833333333333332 0.1188
v 0.099999999999999645 0.11666666666666664 0.1188
v 0.099999999999999645 0.17499999999999999 0.1188
v 0 -0.17499999999999999 0.12
v 0 -0.11666666666666667 0.12
v 0 -0.058333333333333334 0.12
v 0 0 0.12
v 0 0.05833333333333332 0.12
v 0 0.11666666666666664 0.12
v 0 0.17499999999999999 0.12
v 0.10000000000000142 -0.17499999999999999 0.12120000000000002
v 0.10000000000000142 -0.11666666666666667 0.12120000000000002
v 0.10000000000000142 -0.058333333333333334 0.12120000000000002
v 0.10000000000000142 0 0.12120000000000002
v 0.10000000000000142 0.05833333333333332 0.12120000000000002
v 0.10000000000000142 0.11666666666666664 0.12120000000000002
v 0.10000000000000142 0.17499999999999999 0.12120000000000002
v 0.20000000000000107 -0.17499999999999999 0.12240000000000001
v 0.20000000000000107 -0.11666666666666667 0.12240000000000001
v 0.20000000000000107 -0.058333333333333334 0.12240000000000001
v 0.20000000000000107 0 0.12240000000000001
v 0.20000000000000107 0.05833333333333332 0.12240000000000001
v 0.20000000000000107 0.11666666666666664 0.12240000000000001
v 0.20000000000000107 0.17499999999999999 0.12240000000000001
v 0.30000000000000071 -0.17499999999999999 0.12360000000000002
v 0.30000000000000071 -0.11666666666666667 0.12360000000000002
v 0.30000000000000071 -0.058333333333333334 0.12360000000000002
v 0.30000000000000071 0 0.12360000000000002
v 0.30000000000000071 0.05833333333333332 0.12360000000000002
v 0.30000000000000071 0.11666666666666664 0.12360000000000002
v 0.30000000000000071 0.17499999999999999 0.12360000000000002
v 0.40000000000000036 -0.17499999999999999 0.12480000000000001
v 0.40000000000000036 -0.11666666666666667 0.12480000000000001
v 0.40000000000000036 -0.058333333333333334 0.12480000000000001
v 0.40000000000000036 0 0.12480000000000001
v 0.40000000000000036 0.05833333333333332 0.12480000000000001
v 0.40000000000000036 0.11666666666666664 0.12480000000000001
v 0.40000000000000036 0.17499999999999999 0.12480000000000001
v 0.5 -0.17499999999999999 0.126
v 0.5 -0.11666666666666667 0.126
v 0.5 -0.058333333333333334 0.126
v 0.5 0 0.126
v 0.5 0.05833333333333332 0.126
v 0.5 0.11666666666666664 0.126
v 0.5 0.17499999999999999 0.126
v 0.60000000000000142 -0.17499999999999999 0.12720000000000001
v 0.60000000000000142 -0.11666666666666667 0.12720000000000001
v 0.60000000000000142 -0.058333333333333334 0.12720000000000001
v 0.60000000000000142 0 0.12720000000000001
v 0.60000000000000142 0.05833333333333332 0.12720000000000001
v 0.60000000000000142 0.11666666666666664 0.12720000000000001
v 0.60000000000000142 0.17499999999999999 0.12720000000000001
v 0.70000000000000107 -0.17499999999999999 0.12840000000000001
v 0.70000000000000107 -0.11666666666666667 0.12840000000000001
v 0.70000000000000107 -0.058333333333333334 0.12840000000000001
v 0.70000000000000107 0 0.12840000000000001
v 0.70000000000000107 0.05833333333333332 0.12840000000000001
v 0.70000000000000107 0.11666666666666664 0.12840000000000001
v 0.70000000000000107 0.17499999999999999 0.12840000000000001
v 0.80000000000000071 -0.17499999999999999 0.12960000000000002
v 0.80000000000000071 -0.11666666666666667 0.12960000000000002
v 0.80000000000000071 -0.058333333333333334 0.12960000000000002
v 0.80000000000000071 0 0.12960000000000002
v 0.80000000000000071 0.05833333333333332 0.12960000000000002
v 0.80000000000000071 0.11666666666666664 0.12960000000000002
v 0.80000000000000071 0.17499999999999999 0.12960000000000002
v 0.90000000000000036 -0.17499999999999999 0.1308
v 0.90000000000000036 -0.11666666666666667 0.1308
v 0.90000000000000036 -0.058333333333333334 0.1308
v 0.90000000000000036 0 0.1308
v 0.90000000000000036 0.05833333333333332 0.1308
v 0.90000000000000036 0.11666666666666664 0.1308
v 0.90000000000000036 0.17499999999999999 0.1308
v 1 -0.17499999999999999 0.13200000000000001
v 1 -0.11666666666666667 0.13200000000000001
v 1 -0.058333333333333334 0.13200000000000001
v 1 0 0.13200000000000001
v 1 0.05833333333333332 0.13200000000000001
v 1 0.11666666666666664 0.13200000000000001
v 1 0.17499999999999999 0.13200000000000001
v 0.89999999999999858 -0.17499999999999999 0.13320000000000001
v 0.89999999999999858 -0.11666666666666667 0.13320000000000001
v 0.89999999999999858 -0.058333333333333334 0.13320000000000001
v 0.89999999999999858 0 0.13320000000000001
v 0.89999999999999858 0.05833333333333332 0.13320000000000001
v 0.89999999999999858 0.11666666666666664 0.13320000000000001
v 0.89999999999999858 0.17499999999999999 0.13320000000000001
v 0.79999999999999893 -0.17499999999999999 0.13440000000000002
v 0.79999999999999893 -0.11666666666666667 0.13440000000000002
v 0.79999999999999893 -0.058333333333333334 0.13440000000000002
v 0.79999999999999893 0 0.13440000000000002
v 0.79999999999999893 0.05833333333333332 0.13440000000000002
v 0.79999999999999893 0.11666666666666664 0.13440000000000002
v 0.79999999999999893 0.17499999999999999 0.13440000000000002
v 0.69999999999999929 -0.17499999999999999 0.1356
v 0.69999999999999929 -0.11666666666666667 0.1356
v 0.69999999999999929 -0.058333333333333334 0.1356
v 0.69999999999999929 0 0.1356
v 0.69999999999999929 0.05833333333333332 0.1356
v 0.69999999999999929 0.11666666666666664 0.1356
v 0.69999999999999929 0.17499999999999999 0.1356
v 0.59999999999999964 -0.17499999999999999 0.1368
v 0.59999999999999964 -0.11666666666666667 0.1368
v 0.59999999999999964 -0.058333333333333334 0.1368
v 0.59999999999999964 0 0.1368
v 0.59999999999999964 0.05833333333333332 0.1368
v 0.59999999999999964 0.11666666666666664 0.1368
v 0.59999999999999964 0.17499999999999999 0.1368
v 0.5 -0.17499999999999999 0.13800000000000001
v 0.5 -0.11666666666666667 0.13800000000000001
v 0.5 -0.058333333333333334 0.13800000000000001
v 0.5 0 0.13800000000000001
v 0.5 0.05833333333333332 0.13800000000000001
v 0.5 0.11666666666666664 0.13800000000000001
v 0.5 0.17499999999999999 0.13800000000000001
v 0.39999999999999858 -0.17499999999999999 0.13920000000000002
v 0.39999999999999858 -0.11666666666666667 0.13920000000000002
v 0.39999999999999858 -0.058333333333333334 0.13920000000000002
v 0.39999999999999858 0 0.13920000000000002
v 0.39999999999999858 0.05833333333333332 0.13920000000000002
v 0.39999999999999858 0.11666666666666664 0.13920000000000002
v 0.39999999999999858 0.17499999999999999 0.13920000000000002
v 0.29999999999999893 -0.17499999999999999 0.14040000000000002
v 0.29999999999999893 -0.11666666666666667 0.14040000000000002
v 0.29999999999999893 -0.058333333333333334 0.14040000000000002
v 0.29999999999999893 0 0.14040000000000002
v 0.29999999999999893 0.05833333333333332 0.14040000000000002
v 0.29999999999999893 0.11666666666666664 0.14040000000000002
v 0.29999999999999893 0.17499999999999999 0.14040000000000002
v 0.19999999999999929 -0.17499999999999999 0.1416
v 0.19999999999999929 -0.11666666666666667 0.1416
v 0.19999999999999929 -0.058333333333333334 0.1416
v 0.19999999999999929 0 0.1416
v 0.19999999999999929 0.05833333333333332 0.1416
v 0.19999999999999929 0.11666666666666664 0.1416
v 0.19999999999999929 0.17499999999999999 0.1416
v 0.099999999999999645 -0.17499999999999999 0.14280000000000001
v 0.099999999999999645 -0.11666666666666667 0.14280000000000001
v 0.099999999999999645 -0.058333333333333334 0.14280000000000001
v 0.099999999999999645 0 0.14280000000000001
v 0.099999999999999645 0.05833333333333332 0.14280000000000001
v 0.099999999999999645 0.11666666666666664 0.14280000000000001
v 0.099999999999999645 0.17499999999999999 0.14280000000000001
v 0 -0.17499999999999999 0.14400000000000002
v 0 -0.11666666666666667 0.14400000000000002
v 0 -0.058333333333333334 0.14400000000000002
v 0 0 0.14400000000000002
v 0 0.05833333333333332 0.14400000000000002
v 0 0.11666666666666664 0.14400000000000002
v 0 0.17499999999999999 0.14400000000000002
v 0.10000000000000142 -0.17499999999999999 0.14520000000000002
v 0.10000000000000142 -0.11666666666666667 0.14520000000000002
v 0.10000000000000142 -0.058333333333333334 0.14520000000000002
v 0.10000000000000142 0 0.14520000000000002
v 0.10000000000000142 0.05833333333333332 0.14520000000000002
v 0.10000000000000142 0.11666666666666664 0.14520000000000002
v 0.10000000000000142 0.17499999999999999 0.14520000000000002
v 0.20000000000000107 -0.17499999999999999 0.1464
v 0.20000000000000107 -0.11666666666666667 0.1464
v 0.20000000000000107 -0.058333333333333334 0.1464
v 0.20000000000000107 0 0.1464
v 0.20000000000000107 0.05833333333333332 0.1464
v 0.20000000000000107 0.11666666666666664 0.1464
v 0.20000000000000107 0.17499999999999999 0.1464
v 0.30000000000000071 -0.17499999999999999 0.14760000000000001
v 0.30000000000000071 -0.11666666666666667 0.14760000000000001
v 0.30000000000000071 -0.058333333333333334 0.14760000000000001
v 0.30000000000000071 0 0.14760000000000001
v 0.30000000000000071 0.05833333333333332 0.14760000000000001
v 0.30000000000000071 0.11666666666666664 0.14760000000000001
v 0.30000000000000071 0.17499999999999999 0.14760000000000001
v 0.40000000000000036 -0.17499999999999999 0.14880000000000002
v 0.40000000000000036 -0.11666666666666667 0.14880000000000002
v 0.40000000000000036 -0.058333333333333334 0.14880000000000002
v 0.40000000000000036 0 0.14880000000000002
v 0.40000000000000036 0.05833333333333332 0.14880000000000002
v 0.40000000000000036 0.11666666666666664 0.14880000000000002
v 0.40000000000000036 0.17499999999999999 0.14880000000000002
v 0.5 -0.17499999999999999 0.14999999999999999
v 0.5 -0.11666666666666667 0.14999999999999999
v 0.5 -0.058333333333333334 0.14999999999999999
v 0.5 0 0.14999999999999999
v 0.5 0.05833333333333332 0.14999999999999999
v 0.5 0.11666666666666664 0.14999999999999999
v 0.5 0.17499999999999999 0.14999999999999999
v 0.60000000000000142 -0.17499999999999999 0.15120000000000003
v 0.60000000000000142 -0.11666666666666667 0.15120000000000003
v 0.60000000000000142 -0.058333333333333334 0.15120000000000003
v 0.60000000000000142 0 0.15120000000000003
v 0.60000000000000142 0.05833333333333332 0.15120000000000003
v 0.60000000000000142 0.11666666666666664 0.15120000000000003
v 0.60000000000000142 0.17499999999999999 0.15120000000000003
v 0.70000000000000107 -0.17499999999999999 0.15240000000000001
v 0.70000000000000107 -0.11666666666666667 0.15240000000000001
v 0.70000000000000107 -0.058333333333333334 0.15240000000000001
v 0.70000000000000107 0 0.15240000000000001
v 0.70000000000000107 0.05833333333333332 0.15240000000000001
v 0.70000000000000107 0.11666666666666664 0.15240000000000001
v 0.70000000000000107 0.17499999999999999 0.15240000000000001
v 0.80000000000000071 -0.17499999999999999 0.15360000000000001
v 0.80000000000000071 -0.11666666666666667 0.15360000000000001
v 0.80000000000000071 -0.058333333333333334 0.15360000000000001
v 0.80000000000000071 0 0.15360000000000001
v 0.80000000000000071 0.05833333333333332 0.15360000000000001
v 0.80000000000000071 0.11666666666666664 0.15360000000000001
v 0.80000000000000071 0.17499999999999999 0.15360000000000001
v 0.90000000000000036 -0.17499999999999999 0.15480000000000002
v 0.90000000000000036 -0.11666666666666667 0.15480000000000002
v 0.90000000000000036 -0.058333333333333334 0.15480000000000002
v 0.90000000000000036 0 0.15480000000000002
v 0.90000000000000036 0.05833333333333332 0.15480000000000002
v 0.90000000000000036 0.11666666666666664 0.15480000000000002
v 0.90000000000000036 0.17499999999999999 0.15480000000000002
v 1 -0.17499999999999999 0.156
v 1 -0.11666666666666667 0.156
v 1 -0.058333333333333334 0.156
v 1 0 0.156
v 1 0.05833333333333332 0.156
v 1 0.11666666666666664 0.156
v 1 0.17499999999999999 0.156
v 0.89999999999999858 -0.17499999999999999 0.15720000000000003
v 0.89999999999999858 -0.11666666666666667 0.15720000000000003
v 0.89999999999999858 -0.058333333333333334 0.15720000000000003
v 0.89999999999999858 0 0.15720000000000003
v 0.89999999999999858 0.05833333333333332 0.15720000000000003
v 0.89999999999999858 0.11666666666666664 0.15720000000000003
v 0.89999999999999858 0.17499999999999999 0.15720000000000003
v 0.79999999999999893 -0.17499999999999999 0.15840000000000001
v 0.79999999999999893 -0.11666666666666667 0.15840000000000001
v 0.79999999999999893 -0.058333333333333334 0.15840000000000001
v 0.79999999999999893 0 0.15840000000000001
v 0.79999999999999893 0.05833333333333332 0.15840000000000001
v 0.79999999999999893 0.11666666666666664 0.15840000000000001
v 0.79999999999999893 0.17499999999999999 0.15840000000000001
v 0.69999999999999929 -0.17499999999999999 0.15960000000000002
v 0.69999999999999929 -0.11666666666666667 0.15960000000000002
v 0.69999999999999929 -0.058333333333333334 0.15960000000000002
v 0.69999999999999929 0 0.15960000000000002
v 0.69999999999999929 0.05833333333333332 0.15960000000000002
v 0.69999999999999929 0.11666666666666664 0.15960000000000002
v 0.69999999999999929 0.17499999999999999 0.15960000000000002
v 0.59999999999999964 -0.17499999999999999 0.1608
v 0.59999999999999964 -0.11666666666666667 0.1608
v 0.59999999999999964 -0.058333333333333334 0.1608
v 0.59999999999999964 0 0.1608
v 0.59999999999999964 0.05833333333333332 0.1608
v 0.59999999999999964 0.11666666666666664 0.1608
v 0.59999999999999964 0.17499999999999999 0.1608
v 0.5 -0.17499999999999999 0.16200000000000001
v 0.5 -0.11666666666666667 0.16200000000000001
v 0.5 -0.058333333333333334 0.16200000000000001
v 0.5 0 0.16200000000000001
v 0.5 0.05833333333333332 0.16200000000000001
v 0.5 0.11666666666666664 0.16200000000000001
v 0.5 0.17499999999999999 0.16200000000000001
v 0.39999999999999858 -0.17499999999999999 0.16320000000000001
v 0.39999999999999858 -0.11666666666666667 0.16320000000000001
v 0.39999999999999858 -0.058333333333333334 0.16320000000000001
v 0.39999999999999858 0 0.16320000000000001
v 0.39999999999999858 0.05833333333333332 0.16320000000000001
v 0.39999999999999858 0.11666666666666664 0.16320000000000001
v 0.39999999999999858 0.17499999999999999 0.16320000000000001
v 0.29999999999999893 -0.17499999999999999 0.16440000000000002
v 0.29999999999999893 -0.11666666666666667 0.16440000000000002
v 0.29999999999999893 -0.058333333333333334 0.16440000000000002
v 0.29999999999999893 0 0.16440000000000002
v 0.29999999999999893 0.05833333333333332 0.16440000000000002
v 0.29999999999999893 0.11666666666666664 0.16440000000000002
v 0.29999999999999893 0.17499999999999999 0.16440000000000002
v 0.19999999999999929 -0.17499999999999999 0.16560000000000002
v 0.19999999999999929 -0.11666666666666667 0.16560000000000002
v 0.19999999999999929 -0.058333333333333334 0.16560000000000002
v 0.19999999999999929 0 0.16560000000000002
v 0.19999999999999929 0.05833333333333332 0.16560000000000002
v 0.19999999999999929 0.11666666666666664 0.16560000000000002
v 0.19999999999999929 0.17499999999999999 0.16560000000000002
v 0.099999999999999645 -0.17499999999999999 0.1668
v 0.099999999999999645 -0.11666666666666667 0.1668
v 0.099999999999999645 -0.058333333333333334 0.1668
v 0.099999999999999645 0 0.1668
v 0.099999999999999645 0.05833333333333332 0.1668
v 0.099999999999999645 0.11666666666666664 0.1668
v 0.099999999999999645 0.17499999999999999 0.1668
v 0 -0.17499999999999999 0.16800000000000001
v 0 -0.11666666666666667 0.16800000000000001
v 0 -0.058333333333333334 0.16800000000000001
v 0 0 0.16800000000000001
v 0 0.05833333333333332 0.16800000000000001
v 0 0.11666666666666664 0.16800000000000001
v 0 0.17499999999999999 0.16800000000000001
f 1 8 2
f 2 8 9
f 2 9 3
f 3 9 10
f 3 10 4
f 4 10 11
f 4 11 5
f 5 11 12
f 5 12 6
f 6 12 13
f 6 13 7
f 7 13 14
f 8 15 9
f 9 15 16
f 9 16 10
f 10 16 17
f 10 17 11
f 11 17 18
f 11 18 12
f 12 18 19
f 12 19 13
f 13 19 20
f 13 20 14
f 14 20 21
f 15 22 16
f 16 22 23
f 16 23 17
f 17 23 24
f 17 24 18
f 18 24 25
f 18 25 19
f 19 25 26
f 19 26 20
f 20 26 27
f 20 27 21
f 21 27 28
f 22 29 23
f 23 29 30
f 23 30 24
f 24 30 31
f 24 31 25
f 25 31 32
f 25 32 26
f 26 32 33
f 26 33 27
f 27 33 34
f 27 34 28
f 28 34 35
f 29 36 30
f 30 36 37
f 30 37 31
f 31 37 38
f 31 38 32
f 32 38 39
f 32 39 33
f 33 39 40
f 33 40 34
f 34 40 41
f 34 41 35
f 35 41 42
f 36 43 37
f 37 43 44
f 37 44 38
f 38 44 45
f 38 45 39
f 39 45 46
f 39 46 40
f 40 46 47
f 40 47 41
f 41 47 48
f 41 48 42
f 42 48 49
f 43 50 44
f 44 50 51
f 44 51 45
f 45 51 52
f 45 52 46
f 46 52 53
f 46 53 47
f 47 53 54
f 47 54 48
f 48 54 55
f 48 55 49
f 49 55 56
f 50 57 51
f 51 57 58
f 51 58 52
f 52 58 59
f 52 59 53
f 53 59 60
f 53 60 54
f 54 60 61
f 54 61 55
f 55 61 62
f 55 62 56
f 56 62 63
f 57 64 58
f 58 64 65
f 58 65 59
f 59 65 66
f 59 66 60
f 60 66 67
f 60 67 61
f 61 67 68
f 61 68 62
f 62 68 69
f 62 69 63
f 63 69 70
f 64 71 65
f 65 71 72
f 65 72 66
f 66 72 73
f 66 73 67
f 67 73 74
f 67 74 68
f 68 74 75
f 68 75 69
f 69 75 76
f 69 76 70
f 70 76 77
f 71 78 72
f 72 78 79
f 72 79 73
f 73 79 80
f 73 80 74
f 74 80 81
f 74 81 75
f 75 81 82
f 75 82 76
f 76 82 83
f 76 83 77
f 77 83 84
f 78 85 79
f 79 85 86
f 79 86 80
f 80 86 87
f 80 87 81
f 81 87 88
f 81 88 82
f 82 88 89
f 82 89 83
f 83 89 90
f 83 90 84
f 84 90 91
f 85 92 86
f 86 92 93
f 86 93 87
f 87 93 94
f 87 94 88
f 88 94 95
f 88 95 89
f 89 95 96
f 89 96 90
f 90 96 97
f 90 97 91
f 91 97 98
f 92 99 93
f 93 99 100
f 93 100 94
f 94 100 101
f 94 101 95
f 95 101 102
f 95 102 96
f 96 102 103
f 96 103 97
f 97 103 104
f 97 104 98
f 98 104 105
f 99 106 100
f 100 106 107
f 100 107 101
f 101 107 108
f 101 108 102
f 102 108 109
f 102 109 103
f 103 109 110
f 103 110 104
f 104 110 111
f 104 111 105
f 105 111 112
f 106 113 107
f 107 113 114
f 107 114 108
f 108 114 115
f 108 115 109
f 109 115 116
f 109 116 110
f 110 116 117
f 110 117 111
f 111 117 118
f 111 118 112
f 112 118 119
f 113 120 114
f 114 120 121
f 114 121 115
f 115 121 122
f 115 122 116
f 116 122 123
f 116 123 117
f 117 123 124
f 117 124 118
f 118 124 125
f 118 125 119
f 119 125 126
f 120 127 121
f 121 127 128
f 121 128 122
f 122 128 129
f 122 129 123
f 123 129 130
f 123 130 124
f 124 130 131
f 124 131 125
f 125 131 132
f 125 132 126
f 126 132 133
f 127 134 128
f 128 134 135
f 128 135 129
f 129 135 136
f 129 136 130
f 130 136 137
f 130 137 131
f 131 137 138
f 131 138 132
f 132 138 139
f 132 139 133
f 133 139 140
f 134 141 135
f 135 141 142
f 135 142 136
f 136 142 143
f 136 143 137
f 137 143 144
f 137 144 138
f 138 144 145
f 138 145 139
f 139 145 146
f 139 146 140
f 140 146 147
f 141 148 142
f 142 148 149
f 142 149 143
f 143 149 150
f 143 150 144
f 144 150 151
f 144 151 145
f 145 151 152
f 145 152 146
f 146 152 153
f 146 153 147
f 147 153 154
f 148 155 149
f 149 155 156
f 149 156 150
f 150 156 157
f 150 157 151
f 151 157 158
f 151 158 152
f 152 158 159
f 152 159 153
f 153 159 160
f 153 160 154
f 154 160 161
f 155 162 156
f 156 162 163
f 156 163 157
f 157 163 164
f 157 164 158
f 158 164 165
f 158 165 159
f 159 165 166
f 159 166 160
f 160 166 167
f 160 167 161
f 161 167 168
f 162 169 163
f 163 169 170
f 163 170 164
f 164 170 171
f 164 171 165
f 165 171 172
f 165 172 166
f 166 172 173
f 166 173 167
f 167 173 174
f 167 174 168
f 168 174 175
f 169 176 170
f 170 176 177
f 170 177 171
f 171 177 178
f 171 178 172
f 172 178 179
f 172 179 173
f 173 179 180
f 173 180 174
f 174 180 181
f 174 181 175
f 175 181 182
f 176 183 177
f 177 183 184
f 177 184 178
f 178 184 185
f 178 185 179
f 179 185 186
f 179 186 180
f 180 186 187
f 180 187 181
f 181 187 188
f 181 188 182
f 182 188 189
f 183 190 184
f 184 190 191
f 184 191 185
f 185 191 192
f 185 192 186
f 186 192 193
f 186 193 187
f 187 193 194
f 187 194 188
f 188 194 195
f 188 195 189
f 189 195 196
f 190 197 191
f 191 197 198
f 191 198 192
f 192 198 199
f 192 199 193
f 193 199 200
f 193 200 194
f 194 200 201
f 194 201 195
f 195 201 202
f 195 202 196
f 196 202 203
f 197 204 198
f 198 204 205
f 198 205 199
f 199 205 206
f 199 206 200
f 200 206 207
f 200 207 201
f 201 207 208
f 201 208 202
f 202 208 209
f 202 209 203
f 203 209 210
f 204 211 205
f 205 211 212
f 205 212 206
f 206 212 213
f 206 213 207
f 207 213 214
f 207 214 208
f 208 214 215
f 208 215 209
f 209 215 216
f 209 216 210
f 210 216 217
f 211 218 212
f 212 218 219
f 212 219 213
f 213 219 220
f 213 220 214
f 214 220 221
f 214 221 215
f 215 221 222
f 215 222 216
f 216 222 223
f 216 223 217
f 217 223 224
f 218 225 219
f 219 225 226
f 219 226 220
f 220 226 227
f 220 227 221
f 221 227 228
f 221 228 222
f 222 228 229
f 222 229 223
f 223 229 230
f 223 230 224
f 224 230 231
f 225 232 226
f 226 232 233
f 226 233 227
f 227 233 234
f 227 234 228
f 228 234 235
f 228 235 229
f 229 235 236
f 229 236 230
f 230 236 237
f 230 237 231
f 231 237 238
f 232 239 233
f 233 239 240
f 233 240 234
f 234 240 241
f 234 241 235
f 235 241 242
f 235 242 236
f 236 242 243
f 236 243 237
f 237 243 244
f 237 244 238
f 238 244 245
f 239 246 240
f 240 246 247
f 240 247 241
f 241 247 248
f 241 248 242
f 242 248 249
f 242 249 243
f 243 249 250
f 243 250 244
f 244 250 251
f 244 251 245
f 245 251 252
f 246 253 247
f 247 253 254
f 247 254 248
f 248 254 255
f 248 255 249
f 249 255 256
f 249 256 250
f 250 256 257
f 250 257 251
f 251 257 258
f 251 258 252
f 252 258 259
f 253 260 254
f 254 260 261
f 254 261 255
f 255 261 262
f 255 262 256
f 256 262 263
f 256 263 257
f 257 263 264
f 257 264 258
f 258 264 265
f 258 265 259
f 259 265 266
f 260 267 261
f 261 267 268
f 261 268 262
f 262 268 269
f 262 269 263
f 263 269 270
f 263 270 264
f 264 270 271
f 264 271 265
f 265 271 272
f 265 272 266
f 266 272 273
f 267 274 268
f 268 274 275
f 268 275 269
f 269 275 276
f 269 276 270
f 270 276 277
f 270 277 271
f 271 277 278
f 271 278 272
f 272 278 279
f 272 279 273
f 273 279 280
f 274 281 275
f 275 281 282
f 275 282 276
f 276 282 283
f 276 283 277
f 277 283 284
f 277 284 278
f 278 284 285
f 278 285 279
f 279 285 286
f 279 286 280
f 280 286 287
f 281 288 282
f 282 288 289
f 282 289 283
f 283 289 290
f 283 290 284
f 284 290 291
f 284 291 285
f 285 291 292
f 285 292 286
f 286 292 293
f 286 293 287
f 287 293 294
f 288 295 289
f 289 295 296
f 289 296 290
f 290 296 297
f 290 297 291
f 291 297 298
f 291 298 292
f 292 298 299
f 292 299 293
f 293 299 300
f 293 300 294
f 294 300 301
f 295 302 296
f 296 302 303
f 296 303 297
f 297 303 304
f 297 304 298
f 298 304 305
f 298 305 299
f 299 305 306
f 299 306 300
f 300 306 307
f 300 307 301
f 301 307 308
f 302 309 303
f 303 309 310
f 303 310 304
f 304 310 311
f 304 311 305
f 305 311 312
f 305 312 306
f 306 312 313
f 306 313 307
f 307 313 314
f 307 314 308
f 308 314 315
f 309 316 310
f 310 316 317
f 310 317 311
f 311 317 318
f 311 318 312
f 312 318 319
f 312 319 313
f 313 319 320
f 313 320 314
f 314 320 321
f 314 321 315
f 315 321 322
f 316 323 317
f 317 323 324
f 317 324 318
f 318 324 325
f 318 325 319
f 319 325 326
f 319 326 320
f 320 326 327
f 320 327 321
f 321 327 328
f 321 328 322
f 322 328 329
f 323 330 324
f 324 330 331
f 324 331 325
f 325 331 332
f 325 332 326
f 326 332 333
f 326 333 327
f 327 333 334
f 327 334 328
f 328 334 335
f 328 335 329
f 329 335 336
f 330 337 331
f 331 337 338
f 331 338 332
f 332 338 339
f 332 339 333
f 333 339 340
f 333 340 334
f 334 340 341
f 334 341 335
f 335 341 342
f 335 342 336
f 336 342 343
f 337 344 338
f 338 344 345
f 338 345 339
f 339 345 346
f 339 346 340
f 340 346 347
f 340 347 341
f 341 347 348
f 341 348 342
f 342 348 349
f 342 349 343
f 343 349 350
f 344 351 345
f 345 351 352
f 345 352 346
f 346 352 353
f 346 353 347
f 347 353 354
f 347 354 348
f 348 354 355
f 348 355 349
f 349 355 356
f 349 356 350
f 350 356 357
f 351 358 352
f 352 358 359
f 352 359 353
f 353 359 360
f 353 360 354
f 354 360 361
f 354 361 355
f 355 361 362
f 355 362 356
f 356 362 363
f 356 363 357
f 357 363 364
f 358 365 359
f 359 365 366
f 359 366 360
f 360 366 367
f 360 367 361
f 361 367 368
f 361 368 362
f 362 368 369
f 362 369 363
f 363 369 370
f 363 370 364
f 364 370 371
f 365 372 366
f 366 372 373
f 366 373 367
f 367 373 374
f 367 374 368
f 368 374 375
f 368 375 369
f 369 375 376
f 369 376 370
f 370 376 377
f 370 377 371
f 371 377 378
f 372 379 373
f 373 379 380
f 373 380 374
f 374 380 381
f 374 381 375
f 375 381 382
f 375 382 376
f 376 382 383
f 376 383 377
f 377 383 384
f 377 384 378
f 378 384 385
f 379 386 380
f 380 386 387
f 380 387 381
f 381 387 388
f 381 388 382
f 382 388 389
f 382 389 383
f 383 389 390
f 383 390 384
f 384 390 391
f 384 391 385
f 385 391 392
f 386 393 387
f 387 393 394
f 387 394 388
f 388 394 395
f 388 395 389
f 389 395 396
f 389 396 390
f 390 396 397
f 390 397 391
f 391 397 398
f 391 398 392
f 392 398 399
f 393 400 394
f 394 400 401
f 394 401 395
f 395 401 402
f 395 402 396
f 396 402 403
f 396 403 397
f 397 403 404
f 397 404 398
f 398 404 405
f 398 405 399
f 399 405 406
f 400 407 401
f 401 407 408
f 401 408 402
f 402 408 409
f 402 409 403
f 403 409 410
f 403 410 404
f 404 410 411
f 404 411 405
f 405 411 412
f 405 412 406
f 406 412 413
f 407 414 408
f 408 414 415
f 408 415 409
f 409 415 416
f 409 416 410
f 410 416 417
f 410 417 411
f 411 417 418
f 411 418 412
f 412 418 419
f 412 419 413
f 413 419 420
f 414 421 415
f 415 421 422
f 415 422 416
f 416 422 423
f 416 423 417
f 417 423 424
f 417 424 418
f 418 424 425
f 418 425 419
f 419 425 426
f 419 426 420
f 420 426 427
f 421 428 422
f 422 428 429
f 422 429 423
f 423 429 430
f 423 430 424
f 424 430 431
f 424 431 425
f 425 431 432
f 425 432 426
f 426 432 433
f 426 433 427
f 427 433 434
f 428 435 429
f 429 435 436
f 429 436 430
f 430 436 437
f 430 437 431
f 431 437 438
f 431 438 432
f 432 438 439
f 432 439 433
f 433 439 440
f 433 440 434
f 434 440 441
f 435 442 436
f 436 442 443
f 436 443 437
f 437 443 444
f 437 444 438
f 438 444 445
f 438 445 439
f 439 445 446
f 439 446 440
f 440 446 447
f 440 447 441
f 441 447 448
f 442 449 443
f 443 449 450
f 443 450 444
f 444 450 451
f 444 451 445
f 445 451 452
f 445 452 446
f 446 452 453
f 446 453 447
f 447 453 454
f 447 454 448
f 448 454 455
f 449 456 450
f 450 456 457
f 450 457 451
f 451 457 458
f 451 458 452
f 452 458 459
f 452 459 453
f 453 459 460
f 453 460 454
f 454 460 461
f 454 461 455
f 455 461 462
f 456 463 457
f 457 463 464
f 457 464 458
f 458 464 465
f 458 465 459
f 459 465 466
f 459 466 460
f 460 466 467
f 460 467 461
f 461 467 468
f 461 468 462
f 462 468 469
f 463 470 464
f 464 470 471
f 464 471 465
f 465 471 472
f 465 472 466
f 466 472 473
f 466 473 467
f 467 473 474
f 467 474 468
f 468 474 475
f 468 475 469
f 469 475 476
f 470 477 471
f 471 477 478
f 471 478 472
f 472 478 479
f 472 479 473
f 473 479 480
f 473 480 474
f 474 480 481
f 474 481 475
f 475 481 482
f 475 482 476
f 476 482 483
f 477 484 478
f 478 484 485
f 478 485 479
f 479 485 486
f 479 486 480
f 480 486 487
f 480 487 481
f 481 487 488
f 481 488 482
f 482 488 489
f 482 489 483
f 483 489 490
f 484 491 485
f 485 491 492
f 485 492 486
f 486 492 493
f 486 493 487
f 487 493 494
f 487 494 488
f 488 494 495
f 488 495 489
f 489 495 496
f 489 496 490
f 490 496 497
f 491 498 492
f 492 498 499
f 492 499 493
f 493 499 500
f 493 500 494
f 494 500 501
f 494 501 495
f 495 501 502
f 495 502 496
f 496 502 503
f 496 503 497
f 497 503 504
f 498 505 499
f 499 505 506
f 499 506 500
f 500 506 507
f 500 507 501
f 501 507 508
f 501 508 502
f 502 508 509
f 502 509 503
f 503 509 510
f 503 510 504
f 504 510 511
f 505 512 506
f 506 512 513
f 506 513 507
f 507 513 514
f 507 514 508
f 508 514 515
f 508 515 509
f 509 515 516
f 509 516 510
f 510 516 517
f 510 517 511
f 511 517 518
f 512 519 513
f 513 519 520
f 513 520 514
f 514 520 521
f 514 521 515
f 515 521 522
f 515 522 516
f 516 522 523
f 516 523 517
f 517 523 524
f 517 524 518
f 518 524 525
f 519 526 520
f 520 526 527
f 520 527 521
f 521 527 528
f 521 528 522
f 522 528 529
f 522 529 523
f 523 529 530
f 523 530 524
f 524 530 531
f 524 531 525
f 525 531 532
f 526 533 527
f 527 533 534
f 527 534 528
f 528 534 535
f 528 535 529
f 529 535 536
f 529 536 530
f 530 536 537
f 530 537 531
f 531 537 538
f 531 538 532
f 532 538 539
f 533 540 534
f 534 540 541
f 534 541 535
f 535 541 542
f 535 542 536
f 536 542 543
f 536 543 537
f 537 543 544
f 537 544 538
f 538 544 545
f 538 545 539
f 539 545 546
f 540 547 541
f 541 547 548
f 541 548 542
f 542 548 549
f 542 549 543
f 543 549 550
f 543 550 544
f 544 550 551
f 544 551 545
f 545 551 552
f 545 552 546
f 546 552 553
f 547 554 548
f 548 554 555
f 548 555 549
f 549 555 556
f 549 556 550
f 550 556 557
f 550 557 551
f 551 557 558
f 551 558 552
f 552 558 559
f 552 559 553
f 553 559 560
f 554 561 555
f 555 561 562
f 555 562 556
f 556 562 563
f 556 563 557
f 557 563 564
f 557 564 558
f 558 564 565
f 558 565 559
f 559 565 566
f 559 566 560
f 560 566 567
f 561 568 562
f 562 568 569
f 562 569 563
f 563 569 570
f 563 570 564
f 564 570 571
f 564 571 565
f 565 571 572
f 565 572 566
f 566 572 573
f 566 573 567
f 567 573 574
f 568 575 569
f 569 575 576
f 569 576 570
f 570 576 577
f 570 577 571
f 571 577 578
f 571 578 572
f 572 578 579
f 572 579 573
f 573 579 580
f 573 580 574
f 574 580 581
f 575 582 576
f 576 582 583
f 576 583 577
f 577 583 584
f 577 584 578
f 578 584 585
f 578 585 579
f 579 585 586
f 579 586 580
f 580 586 587
f 580 587 581
f 581 587 588
f 582 589 583
f 583 589 590
f 583 590 584
f 584 590 591
f 584 591 585
f 585 591 592
f 585 592 586
f 586 592 593
f 586 593 587
f 587 593 594
f 587 594 588
f 588 594 595
f 589 596 590
f 590 596 597
f 590 597 591
f 591 597 598
f 591 598 592
f 592 598 599
f 592 599 593
f 593 599 600
f 593 600 594
f 594 600 601
f 594 601 595
f 595 601 602
f 596 603 597
f 597 603 604
f 597 604 598
f 598 604 605
f 598 605 599
f 599 605 606
f 599 606 600
f 600 606 607
f 600 607 601
f 601 607 608
f 601 608 602
f 602 608 609
f 603 610 604
f 604 610 611
f 604 611 605
f 605 611 612
f 605 612 606
f 606 612 613
f 606 613 607
f 607 613 614
f 607 614 608
f 608 614 615
f 608 615 609
f 609 615 616
f 610 617 611
f 611 617 618
f 611 618 612
f 612 618 619
f 612 619 613
f 613 619 620
f 613 620 614
f 614 620 621
f 614 621 615
f 615 621 622
f 615 622 616
f 616 622 623
f 617 624 618
f 618 624 625
f 618 625 619
f 619 625 626
f 619 626 620
f 620 626 627
f 620 627 621
f 621 627 628
f 621 628 622
f 622 628 629
f 622 629 623
f 623 629 630
f 624 631 625
f 625 631 632
f 625 632 626
f 626 632 633
f 626 633 627
f 627 633 634
f 627 634 628
f 628 634 635
f 628 635 629
f 629 635 636
f 629 636 630
f 630 636 637
f 631 638 632
f 632 638 639
f 632 639 633
f 633 639 640
f 633 640 634
f 634 640 641
f 634 641 635
f 635 641 642
f 635 642 636
f 636 642 643
f 636 643 637
f 637 643 644
f 638 645 639
f 639 645 646
f 639 646 640
f 640 646 647
f 640 647 641
f 641 647 648
f 641 648 642
f 642 648 649
f 642 649 643
f 643 649 650
f 643 650 644
f 644 650 651
f 645 652 646
f 646 652 653
f 646 653 647
f 647 653 654
f 647 654 648
f 648 654 655
f 648 655 649
f 649 655 656
f 649 656 650
f 650 656 657
f 650 657 651
f 651 657 658
f 652 659 653
f 653 659 660
f 653 660 654
f 654 660 661
f 654 661 655
f 655 661 662
f 655 662 656
f 656 662 663
f 656 663 657
f 657 663 664
f 657 664 658
f 658 664 665
f 659 666 660
f 660 666 667
f 660 667 661
f 661 667 668
f 661 668 662
f 662 668 669
f 662 669 663
f 663 669 670
f 663 670 664
f 664 670 671
f 664 671 665
f 665 671 672
f 666 673 667
f 667 673 674
f 667 674 668
f 668 674 675
f 668 675 669
f 669 675 676
f 669 676 670
f 670 676 677
f 670 677 671
f 671 677 678
f 671 678 672
f 672 678 679
f 673 680 674
f 674 680 681
f 674 681 675
f 675 681 682
f 675 682 676
f 676 682 683
f 676 683 677
f 677 683 684
f 677 684 678
f 678 684 685
f 678 685 679
f 679 685 686
f 680 687 681
f 681 687 688
f 681 688 682
f 682 688 689
f 682 689 683
f 683 689 690
f 683 690 684
f 684 690 691
f 684 691 685
f 685 691 692
f 685 692 686
f 686 692 693
f 687 694 688
f 688 694 695
f 688 695 689
f 689 695 696
f 689 696 690
f 690 696 697
f 690 697 691
f 691 697 698
f 691 698 692
f 692 698 699
f 692 699 693
f 693 699 700
f 694 701 695
f 695 701 702
f 695 702 696
f 696 702 703
f 696 703 697
f 697 703 704
f 697 704 698
f 698 704 705
f 698 705 699
f 699 705 706
f 699 706 700
f 700 706 707
f 701 708 702
f 702 708 709
f 702 709 703
f 703 709 710
f 703 710 704
f 704 710 711
f 704 711 705
f 705 711 712
f 705 712 706
f 706 712 713
f 706 713 707
f 707 713 714
f 708 715 709
f 709 715 716
f 709 716 710
f 710 716 717
f 710 717 711
f 711 717 718
f 711 718 712
f 712 718 719
f 712 719 713
f 713 719 720
f 713 720 714
f 714 720 721
f 715 722 716
f 716 722 723
f 716 723 717
f 717 723 724
f 717 724 718
f 718 724 725
f 718 725 719
f 719 725 726
f 719 726 720
f 720 726 727
f 720 727 721
f 721 727 728
f 722 729 723
f 723 729 730
f 723 730 724
f 724 730 731
f 724 731 725
f 725 731 732
f 725 732 726
f 726 732 733
f 726 733 727
f 727 733 734
f 727 734 728
f 728 734 735
f 729 736 730
f 730 736 737
f 730 737 731
f 731 737 738
f 731 738 732
f 732 738 739
f 732 739 733
f 733 739 740
f 733 740 734
f 734 740 741
f 734 741 735
f 735 741 742
f 736 743 737
f 737 743 744
f 737 744 738
f 738 744 745
f 738 745 739
f 739 745 746
f 739 746 740
f 740 746 747
f 740 747 741
f 741 747 748
f 741 748 742
f 742 748 749
f 743 750 744
f 744 750 751
f 744 751 745
f 745 751 752
f 745 752 746
f 746 752 753
f 746 753 747
f 747 753 754
f 747 754 748
f 748 754 755
f 748 755 749
f 749 755 756
f 750 757 751
f 751 757 758
f 751 758 752
f 752 758 759
f 752 759 753
f 753 759 760
f 753 760 754
f 754 760 761
f 754 761 755
f 755 761 762
f 755 762 756
f 756 762 763
f 757 764 758
f 758 764 765
f 758 765 759
f 759 765 766
f 759 766 760
f 760 766 767
f 760 767 761
f 761 767 768
f 761 768 762
f 762 768 769
f 762 769 763
f 763 769 770
f 764 771 765
f 765 771 772
f 765 772 766
f 766 772 773
f 766 773 767
f 767 773 774
f 767 774 768
f 768 774 775
f 768 775 769
f 769 775 776
f 769 776 770
f 770 776 777
f 771 778 772
f 772 778 779
f 772 779 773
f 773 779 780
f 773 780 774
f 774 780 781
f 774 781 775
f 775 781 782
f 775 782 776
f 776 782 783
f 776 783 777
f 777 783 784
f 778 785 779
f 779 785 786
f 779 786 780
f 780 786 787
f 780 787 781
f 781 787 788
f 781 788 782
f 782 788 789
f 782 789 783
f 783 789 790
f 783 790 784
f 784 790 791
f 785 792 786
f 786 792 793
f 786 793 787
f 787 793 794
f 787 794 788
f 788 794 795
f 788 795 789
f 789 795 796
f 789 796 790
f 790 796 797
f 790 797 791
f 791 797 798
f 792 799 793
f 793 799 800
f 793 800 794
f 794 800 801
f 794 801 795
f 795 801 802
f 795 802 796
f 796 802 803
f 796 803 797
f 797 803 804
f 797 804 798
f 798 804 805
f 799 806 800
f 800 806 807
f 800 807 801
f 801 807 808
f 801 808 802
f 802 808 809
f 802 809 803
f 803 809 810
f 803 810 804
f 804 810 811
f 804 811 805
f 805 811 812
f 806 813 807
f 807 813 814
f 807 814 808
f 808 814 815
f 808 815 809
f 809 815 816
f 809 816 810
f 810 816 817
f 810 817 811
f 811 817 818
f 811 818 812
f 812 818 819
f 813 820 814
f 814 820 821
f 814 821 815
f 815 821 822
f 815 822 816
f 816 822 823
f 816 823 817
f 817 823 824
f 817 824 818
f 818 824 825
f 818 825 819
f 819 825 826
f 820 827 821
f 821 827 828
f 821 828 822
f 822 828 829
f 822 829 823
f 823 829 830
f 823 830 824
f 824 830 831
f 824 831 825
f 825 831 832
f 825 832 826
f 826 832 833
f 827 834 828
f 828 834 835
f 828 835 829
f 829 835 836
f 829 836 830
f 830 836 837
f 830 837 831
f 831 837 838
f 831 838 832
f 832 838 839
f 832 839 833
f 833 839 840
f 834 841 835
f 835 841 842
f 835 842 836
f 836 842 843
f 836 843 837
f 837 843 844
f 837 844 838
f 838 844 845
f 838 845 839
f 839 845 846
f 839 846 840
f 840 846 847
f 841 848 842
f 842 848 849
f 842 849 843
f 843 849 850
f 843 850 844
f 844 850 851
f 844 851 845
f 845 851 852
f 845 852 846
f 846 852 853
f 846 853 847
f 847 853 854
f 848 855 849
f 849 855 856
f 849 856 850
f 850 856 857
f 850 857 851
f 851 857 858
f 851 858 852
f 852 858 859
f 852 859 853
f 853 859 860
f 853 860 854
f 854 860 861
f 855 862 856
f 856 862 863
f 856 863 857
f 857 863 864
f 857 864 858
f 858 864 865
f 858 865 859
f 859 865 866
f 859 866 860
f 860 866 867
f 860 867 861
f 861 867 868
f 862 869 863
f 863 869 870
f 863 870 864
f 864 870 871
f 864 871 865
f 865 871 872
f 865 872 866
f 866 872 873
f 866 873 867
f 867 873 874
f 867 874 868
f 868 874 875
f 869 876 870
f 870 876 877
f 870 877 871
f 871 877 878
f 871 878 872
f 872 878 879
f 872 879 873
f 873 879 880
f 873 880 874
f 874 880 881
f 874 881 875
f 875 881 882
f 876 883 877
f 877 883 884
f 877 884 878
f 878 884 885
f 878 885 879
f 879 885 886
f 879 886 880
f 880 886 887
f 880 887 881
f 881 887 888
f 881 888 882
f 882 888 889
f 883 890 884
f 884 890 891
f 884 891 885
f 885 891 892
f 885 892 886
f 886 892 893
f 886 893 887
f 887 893 894
f 887 894 888
f 888 894 895
f 888 895 889
f 889 895 896
f 890 897 891
f 891 897 898
f 891 898 892
f 892 898 899
f 892 899 893
f 893 899 900
f 893 900 894
f 894 900 901
f 894 901 895
f 895 901 902
f 895 902 896
f 896 902 903
f 897 904 898
f 898 904 905
f 898 905 899
f 899 905 906
f 899 906 900
f 900 906 907
f 900 907 901
f 901 907 908
f 901 908 902
f 902 908 909
f 902 909 903
f 903 909 910
f 904 911 905
f 905 911 912
f 905 912 906
f 906 912 913
f 906 913 907
f 907 913 914
f 907 914 908
f 908 914 915
f 908 915 909
f 909 915 916
f 909 916 910
f 910 916 917
f 911 918 912
f 912 918 919
f 912 919 913
f 913 919 920
f 913 920 914
f 914 920 921
f 914 921 915
f 915 921 922
f 915 922 916
f 916 922 923
f 916 923 917
f 917 923 924
f 918 925 919
f 919 925 926
f 919 926 920
f 920 926 927
f 920 927 921
f 921 927 928
f 921 928 922
f 922 928 929
f 922 929 923
f 923 929 930
f 923 930 924
f 924 930 931
f 925 932 926
f 926 932 933
f 926 933 927
f 927 933 934
f 927 934 928
f 928 934 935
f 928 935 929
f 929 935 936
f 929 936 930
f 930 936 937
f 930 937 931
f 931 937 938
f 932 939 933
f 933 939 940
f 933 940 934
f 934 940 941
f 934 941 935
f 935 941 942
f 935 942 936
f 936 942 943
f 936 943 937
f 937 943 944
f 937 944 938
f 938 944 945
f 939 946 940
f 940 946 947
f 940 947 941
f 941 947 948
f 941 948 942
f 942 948 949
f 942 949 943
f 943 949 950
f 943 950 944
f 944 950 951
f 944 951 945
f 945 951 952
f 946 953 947
f 947 953 954
f 947 954 948
f 948 954 955
f 948 955 949
f 949 955 956
f 949 956 950
f 950 956 957
f 950 957 951
f 951 957 958
f 951 958 952
f 952 958 959
f 953 960 954
f 954 960 961
f 954 961 955
f 955 961 962
f 955 962 956
f 956 962 963
f 956 963 957
f 957 963 964
f 957 964 958
f 958 964 965
f 958 965 959
f 959 965 966
f 960 967 961
f 961 967 968
f 961 968 962
f 962 968 969
f 962 969 963
f 963 969 970
f 963 970 964
f 964 970 971
f 964 971 965
f 965 971 972
f 965 972 966
f 966 972 973
f 967 974 968
f 968 974 975
f 968 975 969
f 969 975 976
f 969 976 970
f 970 976 977
f 970 977 971
f 971 977 978
f 971 978 972
f 972 978 979
f 972 979 973
f 973 979 980
f 974 981 975
f 975 981 982
f 975 982 976
f 976 982 983
f 976 983 977
f 977 983 984
f 977 984 978
f 978 984 985
f 978 985 979
f 979 985 986
f 979 986 980
f 980 986 987
